<?xml version="1.0" encoding="UTF-8" standalone="no"?>
<!DOCTYPE svg PUBLIC "-//W3C//DTD SVG 1.1//EN" "http://www.w3.org/Graphics/SVG/1.1/DTD/svg11.dtd">
<svg width="100%" height="100%" viewBox="0 0 3213 1492" version="1.1" xmlns="http://www.w3.org/2000/svg" xmlns:xlink="http://www.w3.org/1999/xlink" xml:space="preserve" xmlns:serif="http://www.serif.com/" style="fill-rule:evenodd;clip-rule:evenodd;stroke-linejoin:round;stroke-miterlimit:2;">
    <g transform="matrix(4.16667,0,0,4.16667,0,0)">
        <rect x="0" y="47.718" width="770.167" height="262.62" style="fill:rgb(176,30,48);fill-rule:nonzero;"/>
        <path d="M502.974,8.893C503.658,8.66 502.295,9.111 502.974,8.893Z" style="fill:rgb(35,31,32);fill-rule:nonzero;"/>
        <path d="M502.974,8.893C503.105,8.854 502.855,8.936 502.974,8.893Z" style="fill:rgb(35,31,32);fill-rule:nonzero;"/>
        <path d="M560.813,358L561.685,358C581.814,358 600.759,355.055 619.104,349.519C638.807,342.683 657.534,328.919 668.837,311.79C687.476,284.51 704.41,231.791 705.116,179.282L705.116,179.136C704.41,126.632 687.476,73.912 668.837,46.626C657.534,29.511 639.242,15.745 619.53,8.893C601.186,3.35 581.378,0.42 561.255,0.42C541.114,0.42 521.307,3.35 502.974,8.893C483.269,15.745 464.995,29.511 453.698,46.626C435.023,73.912 418.107,126.632 417.373,179.136L417.373,179.282C418.107,231.791 435.023,284.51 453.698,311.79C464.995,328.919 483.269,342.608 502.974,349.474C521.307,354.994 540.682,358 560.813,358Z" style="fill:rgb(105,103,92);fill-rule:nonzero;"/>
        <path d="M694.015,179.202C694.646,218.749 682.617,266.746 671,292.276C658.138,321.484 638.486,339.231 609.62,347.118C594.094,351.11 577.752,353.157 560.994,353.157C544.25,353.157 527.857,351.11 512.322,347.118C483.472,339.231 463.799,321.484 450.965,292.276C439.334,266.746 427.293,218.749 427.935,179.202C427.293,139.673 439.334,91.673 450.965,66.145C463.799,36.938 483.472,19.188 512.322,11.293C527.857,7.31 544.25,5.275 560.994,5.275C577.752,5.275 594.094,7.31 609.62,11.293C638.486,19.188 658.138,36.938 671,66.145C682.617,91.673 694.646,139.673 694.015,179.202Z" style="fill:white;fill-rule:nonzero;"/>
        <path d="M561.495,47.496C575.271,47.496 589.095,49.428 601.82,52.862C615.354,56.737 626.489,66.076 632.07,78.772C644.208,104.853 652.197,142.355 652.197,179.202C652.197,216.087 644.208,253.566 632.07,279.647C626.489,292.332 615.354,301.684 601.82,305.551C589.095,308.989 575.271,310.906 561.495,310.906L561.046,310.906C547.219,310.906 533.438,308.989 520.705,305.551C507.161,301.684 496.058,292.332 490.436,279.647C478.266,253.566 470.306,216.087 470.306,179.202C470.306,142.355 478.266,104.853 490.436,78.772C496.058,66.076 507.161,56.737 520.705,52.862C533.438,49.428 547.219,47.496 561.046,47.496L561.495,47.496Z" style="fill:rgb(105,103,92);fill-rule:nonzero;"/>
        <path d="M581.021,97.812C579.097,94.577 580.663,97.466 578.648,93.7" style="fill:white;fill-rule:nonzero;"/>
        <path d="M539.963,172.144L539.963,185.393L494.347,185.428L494.347,172.157L539.963,172.144Z" style="fill:white;fill-rule:nonzero;"/>
        <path d="M529.617,286.923C528.678,284.834 528.287,284.107 528.188,281.949C537.711,281.949 544.159,281.949 554.256,281.953C554.23,285.576 552.176,289.107 548.901,291.463C545.253,294.088 539.272,294.696 535.25,292.454C532.947,291.346 530.865,289.107 529.617,286.923Z" style="fill:white;fill-rule:nonzero;"/>
        <path d="M557.789,276.316L543.784,276.337L543.784,269.86L557.822,269.86L562.251,264.647C564.365,267.152 564.563,267.336 566.779,269.86L580.817,269.86L580.817,276.337L566.745,276.316L566.745,292.454L557.789,292.454L557.789,276.316Z" style="fill:white;fill-rule:nonzero;"/>
        <path d="M559.431,256.228C562.289,255.273 566.349,253.617 567.156,250.838C566.94,246.534 569.917,243.07 572.134,239.622C573.282,238.135 573.395,237.234 573.087,235.582C577.549,235.781 582.063,239.521 583.796,243.677C585.582,247.935 584.887,253.485 582.126,257.031C578.691,261.211 573.941,263.41 568.403,262.414C564.898,261.639 561.462,259.496 559.431,256.228Z" style="fill:white;fill-rule:nonzero;"/>
        <path d="M525.783,198.099C523.292,196.847 519.931,196.333 517.137,197.663C514.901,198.272 512.524,200.92 512.322,203.552C512.169,211.459 512.434,213.876 512.322,222.57C512.169,223.923 511.454,224.565 509.751,224.565C508.301,224.492 507.227,223.77 507.257,222.506L507.257,203.145C507.106,201.075 506.776,199.089 505.361,197.535L495.313,200.815L494.408,201.142C496.958,203.033 498.136,203.069 498.344,206.216L498.338,230.994L498.46,232.301L498.841,233.172L499.141,233.969L499.452,234.574C501.122,237.244 503.899,238.307 505.881,238.801C506.751,239.047 508.265,239.176 509.123,239.192C511.73,239.202 514.184,239.036 516.838,237.169C520.953,233.942 520.057,228.282 520.156,220.067C520.185,217.747 520.354,216.448 521.796,215.141C522.977,214.241 524.651,213.953 526.203,214.254C527.938,214.743 528.218,214.89 529.971,216.041C530.022,208.938 530.257,200.179 525.783,198.099Z" style="fill:white;fill-rule:nonzero;"/>
        <path d="M618.849,229.162C611.527,221.978 598.839,211.95 597.813,207.691C596.695,204.835 597.07,201.361 596.985,198.079C599.141,196.408 600.85,194.941 603.419,192.956C603.222,198.026 602.527,203.173 604.961,206.216C610.959,212.167 616.378,217.533 621.756,222.831C623.758,224.986 625.337,228.087 624.046,230.94C623.426,232.33 622.556,233.878 621.644,235.134C621.644,232.355 620.454,230.731 618.849,229.162Z" style="fill:white;fill-rule:nonzero;"/>
        <path d="M577.354,192.624C582.943,192.544 584.763,192.707 590.547,192.59L590.547,231.757L577.332,231.757L577.354,192.624Z" style="fill:white;fill-rule:nonzero;"/>
        <path d="M606.993,196.265C608.383,194.728 608.878,194.146 610.54,192.544L613.861,196.549L613.861,207.691C618.581,205.409 617.408,198.712 617.408,192.94C620.211,195.217 621.622,196.508 624.28,199.012C625.808,205.695 621.774,209.483 618.796,214.15L606.993,202.849L606.993,196.265Z" style="fill:white;fill-rule:nonzero;"/>
        <path d="M617.729,166.335L619.53,158.865L625.307,158.003L625.295,139.518C623.051,139.842 622.149,140.081 620.308,140.297L620.308,126.272C617.296,126.89 614.043,127.983 610.854,128.732L610.854,152.013C610.832,153.115 609.034,153.503 608.671,153.489L608.176,153.489C607.01,153.489 605.898,152.701 605.898,151.919L605.898,129.489L596.634,130.67L596.634,140.13C593.378,146.772 588.55,152.813 583.825,158.865C588.848,159.228 589.197,159.228 594.171,159.679L597.214,166.335L617.729,166.335Z" style="fill:white;fill-rule:nonzero;"/>
        <path d="M512.524,161.718C512.374,155.604 512.127,151.584 511.974,145.566C513.899,145.044 515.711,146.23 517.184,147.327C516.959,155.022 516.959,154.942 516.791,163.012L512.556,163.012L512.524,161.718Z" style="fill:white;fill-rule:nonzero;"/>
        <path d="M511.729,126.538C510.69,120.514 510.6,120.071 510.047,115.647L506.194,115.647L506.194,111.424C512.83,111.401 516.505,111.439 523.154,111.439L523.168,115.647L519.188,115.647L517.481,129.851C515.776,128.308 513.81,127.229 511.729,126.538Z" style="fill:white;fill-rule:nonzero;"/>
        <path d="M511.032,108.37C505.346,102.302 504.943,93.182 506.049,84.946L506.061,84.914C507.071,87.962 509.021,90.148 512.065,91.598C511.73,89.973 510.3,88.505 509.84,86.796C508.512,83.446 508.642,78.679 510.824,75.771C512.349,73.476 514.581,72.537 516.986,71.766C516.088,74.524 515.794,77.811 516.914,80.594C518.512,79.385 518.589,79.309 519.854,78.11C520.306,77.664 520.508,77.522 520.916,77.213C523.168,82.05 525.714,88.691 524.224,94.322L523.32,96.731C522.942,92.761 522.328,90.865 519.643,89.425C519.279,91.733 520.754,93.395 521.123,96.399C522.216,101.067 521.346,105.681 518.473,108.37L511.032,108.37Z" style="fill:white;fill-rule:nonzero;"/>
        <path d="M581.021,97.812L575.175,104.227C573.588,102.717 573.45,102.563 571.893,100.913C574.873,97.756 575.175,97.418 578.648,93.7" style="fill:white;fill-rule:nonzero;"/>
        <path d="M588.683,82.212C589.856,76.654 590.512,70.242 596.595,67.935C598.917,67.268 602.04,67.555 604.014,69.283C606.618,71.183 607.391,74.393 606.765,77.387C604.913,83.832 597.708,85.032 591.89,86.564L588.683,82.212Z" style="fill:white;fill-rule:nonzero;"/>
        <path d="M629.181,172.144L629.181,185.494L583.57,185.428L583.57,172.157L629.181,172.144Z" style="fill:white;fill-rule:nonzero;"/>
        <path d="M519.034,261.211C517.184,252.79 527.361,249.751 529.771,242.76C531.658,231.068 532.227,218.749 540.376,209.638C541.167,192.462 546.723,177.255 558.916,164.774C558.342,160.899 556.745,157.551 555.606,153.946C553.994,153.88 552.922,153.57 551.485,152.276C550.401,150.784 549.997,149.663 549.699,147.861C545.45,153.128 540.183,159.019 534.394,162.582C533.34,163.178 531.968,161.934 530.062,160.133C522.931,154.503 521.742,141.808 510.897,142.357C505.979,140.711 506.194,134.898 505.392,130.56C507.227,129.232 510.182,129.295 512.374,130.151C519.155,133.77 523.653,141.386 530.062,146.498C531.757,147.861 533.288,149.644 534.855,150.3C539.065,146.68 542.412,143.597 545.243,138.011C547.219,134.837 550.492,133.478 554.114,133.432L556.684,130.397L555.348,122.821C552.667,119.446 550.492,115.901 548.712,112.103C549.636,107.768 550.208,102.701 554.635,100.297C557.501,98.521 559.822,102.582 562.188,100.011C563.911,99.654 565.407,100.123 566.615,101.101C568.403,104.207 570.503,107.302 570.615,110.908C569.519,114.416 567.845,117.666 566.211,120.942C565.832,121.665 564.821,121.891 564.148,122.426C564.563,123.909 564.898,125.558 565.927,126.726C567.243,127.001 568.467,127.235 570.02,126.95C571.305,123.119 575.447,121.394 578.865,120.353L586.452,115.433C585.229,109.693 588.899,104.656 586.866,98.948C582.515,96.901 581.314,92.032 580.352,88.197C581.038,85.832 582.209,83.287 583.932,81.266L584.192,81.566C588.329,86.368 592.126,91.306 593.419,97.269C594.183,104.889 594.897,112.686 594.399,120.647C590.34,124.713 585.382,127.128 580.766,130.151L577.332,136.751C576.917,143.553 574.916,149.691 573.88,156.287C576.809,164.256 580.302,174.876 577.746,182.237C575.767,186.636 571.604,189.032 568.543,191.475L560.797,197.678C568.601,206.222 566.728,215.934 567.048,228.34C566.94,231.344 572.319,233.845 569.465,237.257C567.065,241.106 563.354,244.193 563.967,249.244C561.59,253.222 555.908,254.092 553.19,254.049C552.663,254.092 552.176,253.646 552.176,253.072C552.754,251.018 554.358,249.413 555.191,247.46C557.953,243.208 556.684,237.358 560.124,233.434C557.319,224.194 553.038,215.644 551.87,205.824L551.779,205.188C549.484,209.696 550.757,214.15 551.975,217.718C544.347,227.338 536.054,236.569 536.054,249.244C532.771,255.02 528.171,260.299 525.726,266.425C524.914,267.467 523.419,266.572 522.469,266.025C520.306,264.594 519.781,263.181 519.034,261.211Z" style="fill:white;fill-rule:nonzero;"/>
        <path d="M602.742,219.7C610.074,226.884 622.757,236.936 623.801,241.181C624.877,244.045 624.543,247.465 624.595,250.816C622.463,252.488 620.722,253.907 618.188,255.892C618.382,250.826 619.082,245.673 616.615,242.67C610.656,236.741 605.22,231.317 599.843,226.045C597.842,223.867 596.229,220.788 597.554,217.918C598.165,216.531 599.034,214.969 599.951,213.752C599.951,216.527 601.159,218.114 602.742,219.7Z" style="fill:white;fill-rule:nonzero;"/>
        <path d="M614.617,252.61C613.215,254.152 612.709,254.709 611.058,256.342L607.71,252.324L607.71,241.181C603.028,243.482 604.155,250.137 604.155,255.905C601.385,253.646 599.978,252.362 597.307,249.845C595.793,243.188 599.784,239.413 602.821,234.7L614.617,246.014L614.617,252.61Z" style="fill:white;fill-rule:nonzero;"/>
        <path d="M594.88,286.923C595.858,284.834 596.189,284.107 596.293,281.949C586.746,281.949 580.336,281.949 570.219,281.953C570.296,285.576 572.349,289.107 575.617,291.463C579.223,294.088 585.258,294.696 589.245,292.454C591.544,291.346 593.606,289.107 594.88,286.923Z" style="fill:white;fill-rule:nonzero;"/>
        <path d="M565.857,343.818C565.741,336.588 572.795,332.923 577.255,328.129C578.467,326.983 578.938,324.683 578.048,322.789C577.535,321.59 576.76,321.006 575.767,320.759C574.2,320.401 572.886,320.631 571.896,321.5C570.511,322.791 570.114,324.464 570.219,326.268L565.265,326.56C564.835,323.815 565.494,321.161 567.156,319.083C569.48,316.615 572.954,315.922 576.343,316.151C579.037,316.591 582.203,318.213 583.3,321.038C584.721,324.105 584.247,328.039 581.983,330.62C579.037,333.736 575.24,335.442 572.795,338.947L585.319,338.207C585.422,339.74 585.513,341.248 585.582,342.683L565.857,343.818Z" style="fill:rgb(105,103,92);fill-rule:nonzero;"/>
        <path d="M521.445,312.549L521.356,312.782L513.219,337.772L508.017,336.061L513.615,318.963L513.706,318.671C511.63,317.941 509.123,317.229 507.085,316.516L508.162,313.274C510.795,313.974 513.507,314.426 515.794,312.508C516.635,311.861 516.787,311.681 517.231,311.183L521.445,312.549Z" style="fill:rgb(105,103,92);fill-rule:nonzero;"/>
        <path d="M614.215,331.311C613.534,332.085 612.346,332.684 611.069,332.988C609.771,333.3 608.474,333.345 607.503,332.953C606.208,332.471 605.324,331.474 605.01,330.328C604.513,328.611 605.01,326.803 606.471,325.773C607.096,325.35 607.994,324.919 608.981,324.652C609.995,324.445 611.035,324.387 611.752,324.486C613.538,324.699 614.825,326.081 615.174,327.801C615.419,328.976 615.113,330.298 614.215,331.311ZM603.262,319.257C602.632,318.174 602.632,316.35 603.757,315.263C604.408,314.581 605.336,314.098 606.336,313.86C607.337,313.586 608.412,313.58 609.297,313.903C610.763,314.349 611.632,315.96 611.578,317.217C611.557,318.174 611.144,318.944 610.53,319.532C609.867,320.104 608.973,320.527 608.038,320.74C607.096,320.991 606.143,321.022 605.31,320.829C604.483,320.582 603.724,320.112 603.262,319.257ZM620.474,326.396C619.807,323.931 618.438,321.962 615.709,321.17L614.124,320.829C615.738,319.682 617.248,317.347 616.706,315.097C616.315,312.522 614.46,310.887 612.135,310C610.074,309.356 607.681,309.472 605.404,310.083C603.123,310.601 600.952,311.622 599.438,313.141C597.782,314.995 596.881,317.314 597.769,319.773C598.335,322.019 600.745,323.373 602.719,323.649L601.458,324.683C599.383,326.667 599.125,329.045 599.657,331.53C600.279,334.293 602.527,336.46 605.207,337.263C607.248,337.772 609.693,337.741 612.102,337.172C614.487,336.571 616.692,335.473 618.224,334.037C620.263,332.081 621.204,329.137 620.474,326.396Z" style="fill:rgb(105,103,92);fill-rule:nonzero;"/>
        <path d="M545.46,338.609C544.609,339.144 543.271,339.373 541.965,339.282C540.674,339.215 539.389,338.816 538.598,338.207C537.504,337.354 536.978,336.121 537.007,334.903C537.028,333.146 538.041,331.577 539.738,331.02C540.477,330.807 541.467,330.662 542.489,330.711C543.518,330.792 544.515,331.029 545.191,331.354C546.821,332.098 547.619,333.786 547.443,335.564C547.337,336.726 546.624,337.895 545.46,338.609ZM538.605,323.858C538.353,322.638 538.892,320.882 540.279,320.183C541.072,319.721 542.162,319.532 543.154,319.621C544.209,319.682 545.234,319.988 545.98,320.537C547.25,321.379 547.589,323.191 547.159,324.387C546.891,325.323 546.228,325.881 545.438,326.282C544.656,326.626 543.711,326.742 542.75,326.676C541.768,326.643 540.844,326.396 540.084,325.944C539.389,325.487 538.797,324.805 538.605,323.858ZM552.922,335.781C553.038,333.251 552.292,330.942 549.92,329.377L548.509,328.577C550.39,327.979 552.531,326.207 552.667,323.884C553.072,321.296 551.779,319.187 549.829,317.637C548.073,316.421 545.754,315.828 543.411,315.723C541.072,315.532 538.694,315.867 536.796,316.848C534.631,318.14 533.125,320.096 533.212,322.698C533.081,325.009 534.976,327.028 536.796,327.859L535.304,328.487C532.679,329.761 531.749,331.95 531.558,334.49C531.287,337.333 532.771,340.042 535.126,341.599C536.898,342.726 539.286,343.413 541.724,343.588C544.147,343.725 546.603,343.312 548.509,342.407C551.008,341.137 552.79,338.625 552.922,335.781Z" style="fill:rgb(105,103,92);fill-rule:nonzero;"/>
        <path d="M670.605,82.219L646.257,92.705L644.074,87.656L668.415,77.147L670.605,82.219Z" style="fill:rgb(105,103,92);fill-rule:nonzero;"/>
        <path d="M578.938,40.175L572.69,12.906L578.445,13.472C579.611,20.238 580.806,27.884 582.167,33.571C584.646,28.266 587.358,21.02 589.827,14.656L595.495,15.219L583.993,40.679L578.938,40.175Z" style="fill:rgb(105,103,92);fill-rule:nonzero;"/>
        <path d="M475.455,55.761L469.536,66.35L464.553,63.575L471.307,51.426L467.52,49.276L458.03,66.27L481.147,79.189L490.629,62.185L486.804,60.05L480.017,72.213L473.551,68.58L479.474,57.994L475.455,55.761Z" style="fill:rgb(105,103,92);fill-rule:nonzero;"/>
        <path d="M457.922,180.289L450.544,180.304L450.481,180.304C450.607,174.424 449.695,170.955 453.207,170.266C454.433,169.955 455.935,170.064 456.828,171.006C458.328,172.442 457.884,174.844 457.922,180.289ZM446.502,180.304L439.979,180.304C440.183,174.246 439.186,171.006 442.918,170.604C445.117,170.448 445.701,170.914 446.21,172.248C446.621,173.61 446.502,175.038 446.502,180.304ZM461.452,168.305C460.184,165.456 457.12,164.321 453.95,164.466C451.278,164.811 449.262,166.62 448.116,169.369C447.72,167.763 446.21,165.75 443.656,165.424C441.004,165.107 438.458,165.826 437.192,168.081C435.431,170.313 436.206,180.163 436.021,185.833L462.327,185.817L462.341,183.899C462.177,173.434 462.784,172.174 461.452,168.305Z" style="fill:rgb(105,103,92);fill-rule:nonzero;"/>
        <path d="M670.809,96.936L675.017,95.847L680.357,116.555L676.124,117.644L674.174,109.99L652.893,115.476L651.536,110.107L672.784,104.634L670.809,96.936Z" style="fill:rgb(105,103,92);fill-rule:nonzero;"/>
        <path d="M537.107,41.685C534.137,42.19 531.109,41.893 528.684,40.411C526.584,39.185 525.809,37.605 525.42,35.683L522.378,16.762L527.784,15.888L530.839,34.808C531.153,36.362 532.528,37.313 533.936,37.603C534.729,37.796 535.619,37.789 536.472,37.626" style="fill:rgb(105,103,92);fill-rule:nonzero;"/>
        <path d="M537.173,41.674C540.088,41.224 542.862,39.998 544.739,37.818C546.34,36.01 546.593,34.263 546.33,32.317L543.307,13.38L537.9,14.242L540.968,33.181C541.144,34.611 540.143,36.075 538.888,36.809C538.169,37.257 537.339,37.51 536.472,37.626" style="fill:rgb(105,103,92);fill-rule:nonzero;"/>
        <path d="M667.746,142.811L666.822,136.264L678.255,138.002L678.281,138.002L678.263,138.011L678.299,138.011L678.255,138.011L667.746,142.811ZM683.031,134.478L655.537,128.943L656.271,134.314L662.282,135.415L663.587,144.889L658.149,147.573L658.868,152.964L683.831,140.1L683.031,134.478Z" style="fill:rgb(105,103,92);fill-rule:nonzero;"/>
        <path d="M679.063,179.977L679.546,179.878L680.158,179.732L680.586,179.565C682.333,178.619 682.747,176.298 682.654,174.417C682.6,172.497 682.005,170.56 680.213,169.835C679.277,169.592 678.109,169.521 677.466,170.468C674.489,174.895 676.56,184.276 668.851,185.91C665.49,186.474 662.539,185 660.813,182.31C658.433,178.077 658.236,171.404 660.952,167.243C662.599,165.107 664.839,163.771 667.522,163.753L667.851,168.83C666.192,169.044 664.57,169.887 663.807,171.523C662.703,174.182 662.954,178.39 664.911,179.954C665.642,180.758 667.271,180.658 668.168,180.174C671.228,177.994 670.615,172.498 672.139,168.83C672.656,167.28 674.104,165.703 675.556,164.909C678.259,163.738 681.74,164.167 683.926,166.309C687.458,169.644 687.604,176.166 685.994,180.129C685.076,182.871 682.078,184.856 679.003,185.032L678.674,179.977L679.063,179.977Z" style="fill:rgb(105,103,92);fill-rule:nonzero;"/>
        <path d="M465.917,140.027C465.447,142.959 464.255,145.771 462.074,147.618C460.267,149.242 458.523,149.482 456.596,149.249L437.648,146.276L438.479,140.892L457.406,143.838C458.985,144.032 460.296,143.003 461.024,141.768C461.482,141.061 461.75,140.223 461.863,139.36" style="fill:rgb(105,103,92);fill-rule:nonzero;"/>
        <path d="M465.925,139.978C466.406,137.008 466.112,133.973 464.604,131.56C463.377,129.471 461.806,128.697 459.865,128.308L440.935,125.361L440.07,130.733L459.009,133.736C460.45,133.952 461.535,135.405 461.817,136.812C462.024,137.612 462.009,138.492 461.863,139.36" style="fill:rgb(105,103,92);fill-rule:nonzero;"/>
        <path d="M498.511,43.927L495.576,32.761L495.568,32.721L495.576,32.741L495.576,32.694L495.586,32.752L504.149,40.482L498.511,43.927ZM495.272,26.793L490.436,29.738L496.264,57.176L500.913,54.386L499.537,48.442L507.675,43.462L512.331,47.418L516.973,44.598L495.272,26.793Z" style="fill:rgb(105,103,92);fill-rule:nonzero;"/>
        <path d="M623.835,35.414L612.654,30.725L614.862,25.456L627.679,30.811L629.389,26.775L611.444,19.271L601.199,43.705L619.169,51.208L620.864,47.148L607.988,41.771L610.858,34.939L622.072,39.66L623.835,35.414Z" style="fill:rgb(105,103,92);fill-rule:nonzero;"/>
        <path d="M457.313,103.553L450.667,101.595C452.133,97.083 452.771,92.518 455.944,92.781C457.232,93.001 458.125,93.344 458.873,94.273C460.099,95.796 458.51,99.193 457.313,103.553ZM462.577,94.074C462.569,92.257 462.471,90.754 460.977,89.308C459.515,87.798 457.203,87.117 454.941,87.27C449.04,88.163 448.265,94.934 444.996,105.654L470.369,113.219L471.952,107.915L461.908,104.94L461.504,104.833C462.177,102.366 463.178,99.289 463.657,98.611C465.461,94.433 472.195,98.538 474.855,98.155L476.416,92.892C471.889,93.14 465.818,89.085 462.577,94.074Z" style="fill:rgb(105,103,92);fill-rule:nonzero;"/>
        <path d="M651.615,57.828C650.701,58.732 649.912,59.226 648.72,59.288C646.736,59.381 644.95,56.102 642.12,52.573L647.612,48.364C650.419,52.184 653.717,55.404 651.615,57.828ZM647.646,41.376L626.631,57.426L629.984,61.809L638.289,55.477L638.641,55.218C640.196,57.203 642.134,59.813 642.375,60.606C644.733,64.543 637.413,67.543 636.178,69.943L639.509,74.281C641.972,70.461 648.816,67.958 646.657,62.416C648.142,63.485 649.427,64.299 651.495,63.913C653.577,63.623 655.479,62.168 656.688,60.214C659.425,54.918 654.416,50.313 647.646,41.376Z" style="fill:rgb(105,103,92);fill-rule:nonzero;"/>
        <path d="M35.743,212.26L39.965,212.26C41.575,212.26 45.195,212.209 45.195,207.13C45.195,203.912 43.988,201.952 40.167,201.952L35.743,201.952L35.743,212.26ZM35.743,196.373L40.821,196.373C42.48,196.373 44.792,195.265 44.792,191.745C44.792,189.08 42.983,187.121 40.418,187.121L35.743,187.121L35.743,196.373ZM28.151,217.839L28.151,181.539L41.626,181.539C47.407,181.539 52.183,183.197 52.183,190.939C52.183,195.114 50.122,198.129 45.999,198.934L45.999,199.035C51.378,199.789 52.787,203.258 52.787,208.236C52.787,217.435 44.792,217.839 41.575,217.839L28.151,217.839Z" style="fill:white;fill-rule:nonzero;"/>
        <path d="M83.312,181.539L83.312,207.281C83.312,212.711 80.245,218.442 70.994,218.442C62.647,218.442 58.626,214.118 58.626,207.281L58.626,181.539L66.217,181.539L66.217,206.778C66.217,211.252 68.128,213.012 70.894,213.012C74.211,213.012 75.719,210.801 75.719,206.778L75.719,181.539L83.312,181.539Z" style="fill:white;fill-rule:nonzero;"/>
        <path d="M96.943,197.225L100.312,197.225C103.328,197.225 104.184,194.208 104.184,191.896C104.184,188.426 102.726,187.121 100.312,187.121L96.943,187.121L96.943,197.225ZM96.943,217.839L89.352,217.839L89.352,181.539L103.378,181.539C108.557,181.539 111.875,184.856 111.875,191.04C111.875,195.669 110.065,199.135 105.139,199.941L105.139,200.04C106.797,200.243 111.725,200.643 111.725,207.18C111.725,209.494 111.875,216.33 112.579,217.839L105.139,217.839C104.133,215.628 104.334,213.165 104.334,210.801C104.334,206.475 104.736,202.806 98.903,202.806L96.943,202.806L96.943,217.839Z" style="fill:white;fill-rule:nonzero;"/>
        <path d="M117.464,217.839L117.464,181.539L137.272,181.539L137.272,187.121L125.055,187.121L125.055,196.069L136.317,196.069L136.317,201.65L125.055,201.65L125.055,212.26L137.675,212.26L137.675,217.839L117.464,217.839Z" style="fill:white;fill-rule:nonzero;"/>
        <path d="M154.473,188.528L154.374,188.528L150.903,204.213L158.144,204.213L154.473,188.528ZM139.843,217.839L149.898,181.539L159.903,181.539L169.757,217.839L161.764,217.839L159.753,209.795L149.396,209.795L147.334,217.839L139.843,217.839Z" style="fill:white;fill-rule:nonzero;"/>
        <path d="M197.869,181.539L197.869,207.281C197.869,212.711 194.802,218.442 185.551,218.442C177.205,218.442 173.184,214.118 173.184,207.281L173.184,181.539L180.775,181.539L180.775,206.778C180.775,211.252 182.686,213.012 185.45,213.012C188.769,213.012 190.278,210.801 190.278,206.778L190.278,181.539L197.869,181.539Z" style="fill:white;fill-rule:nonzero;"/>
        <path d="M212.308,181.539L220.201,181.539L225.832,207.934L225.933,207.934L232.267,181.539L239.758,181.539L230.155,217.839L221.256,217.839L212.308,181.539Z" style="fill:white;fill-rule:nonzero;"/>
        <path d="M243.186,217.839L243.186,181.539L262.994,181.539L262.994,187.121L250.776,187.121L250.776,196.069L262.038,196.069L262.038,201.65L250.776,201.65L250.776,212.26L263.396,212.26L263.396,217.839L243.186,217.839Z" style="fill:white;fill-rule:nonzero;"/>
        <path d="M275.77,197.225L279.138,197.225C282.156,197.225 283.01,194.208 283.01,191.896C283.01,188.426 281.552,187.121 279.138,187.121L275.77,187.121L275.77,197.225ZM275.77,217.839L268.178,217.839L268.178,181.539L282.205,181.539C287.383,181.539 290.701,184.856 290.701,191.04C290.701,195.669 288.892,199.135 283.965,199.941L283.965,200.04C285.624,200.243 290.551,200.643 290.551,207.18C290.551,209.494 290.701,216.33 291.405,217.839L283.965,217.839C282.96,215.628 283.161,213.165 283.161,210.801C283.161,206.475 283.563,202.806 277.731,202.806L275.77,202.806L275.77,217.839Z" style="fill:white;fill-rule:nonzero;"/>
        <rect x="296.291" y="181.539" width="7.591" height="36.3" style="fill:white;fill-rule:nonzero;"/>
        <path d="M331.89,181.539L331.89,187.572L323.441,187.572L323.441,217.839L315.85,217.839L315.85,187.572L307.405,187.572L307.405,181.539L331.89,181.539Z" style="fill:white;fill-rule:nonzero;"/>
        <path d="M344.262,188.528L344.163,188.528L340.693,204.213L347.932,204.213L344.262,188.528ZM329.631,217.839L339.688,181.539L349.691,181.539L359.547,217.839L351.552,217.839L349.542,209.795L339.185,209.795L337.123,217.839L329.631,217.839Z" style="fill:white;fill-rule:nonzero;"/>
        <path d="M372.977,218.442C363.575,218.442 361.816,212.91 362.218,206.628L369.809,206.628C369.809,210.097 369.961,213.012 374.133,213.012C376.698,213.012 377.955,211.352 377.955,208.891C377.955,202.355 362.67,201.952 362.67,191.14C362.67,185.461 365.385,180.937 374.636,180.937C382.024,180.937 385.697,184.253 385.194,191.847L377.803,191.847C377.803,189.129 377.351,186.365 374.284,186.365C371.821,186.365 370.362,187.722 370.362,190.237C370.362,197.127 385.646,196.521 385.646,207.934C385.646,217.335 378.758,218.442 372.977,218.442Z" style="fill:white;fill-rule:nonzero;"/>
        <path d="M27.44,248.013C27.44,239.295 27.44,230.989 38.805,230.989C45.834,230.989 48.664,234.869 48.39,241.942L41.635,241.942C41.635,237.563 40.858,235.917 38.805,235.917C34.924,235.917 34.423,239.57 34.423,248.013C34.423,256.457 34.924,260.11 38.805,260.11C42,260.11 41.863,256.003 41.954,253.399L48.754,253.399C48.754,262.208 45.24,265.038 38.805,265.038C27.44,265.038 27.44,256.64 27.44,248.013Z" style="fill:white;fill-rule:nonzero;"/>
        <path d="M64.633,250.387C64.633,248.151 64.724,244.956 61.666,244.956C58.699,244.956 58.745,248.423 58.745,250.387L64.633,250.387ZM58.745,253.993C58.745,256.731 58.836,260.839 61.666,260.839C63.948,260.839 64.404,258.649 64.404,256.731L70.932,256.731C70.84,259.242 70.019,261.294 68.467,262.711C66.961,264.126 64.678,264.947 61.666,264.947C53.359,264.947 52.263,259.878 52.263,252.669C52.263,246.371 53.176,240.985 61.666,240.985C70.339,240.985 71.296,246.598 71.068,253.993L58.745,253.993Z" style="fill:white;fill-rule:nonzero;"/>
        <path d="M81.744,241.441L81.744,244.407L81.835,244.407C83.022,241.76 85.213,240.985 87.814,240.985L87.814,246.736C82.154,246.371 82.064,249.657 82.064,251.939L82.064,264.491L75.628,264.491L75.628,241.441L81.744,241.441Z" style="fill:white;fill-rule:nonzero;"/>
        <path d="M88.221,241.441L90.823,241.441L90.823,237.79L97.258,234.912L97.258,241.441L100.591,241.441L100.591,245.412L97.258,245.412L97.258,257.735C97.258,259.468 97.213,260.612 99.312,260.612C99.723,260.612 100.135,260.612 100.454,260.52L100.454,264.491C99.586,264.582 98.673,264.718 97.121,264.718C91.553,264.718 90.823,261.022 90.823,259.608L90.823,245.412L88.221,245.412L88.221,241.441Z" style="fill:white;fill-rule:nonzero;"/>
        <path d="M110.492,264.491L104.057,264.491L104.057,241.441L110.492,241.441L110.492,264.491ZM110.492,231.538L110.492,236.601L104.057,236.601L104.057,231.538L110.492,231.538Z" style="fill:white;fill-rule:nonzero;"/>
        <path d="M133.905,264.491L127.469,264.491L127.469,241.441L133.905,241.441L133.905,264.491ZM133.905,231.538L133.905,236.601L127.469,236.601L127.469,231.538L133.905,231.538ZM126.1,235.506C123.498,235.325 122.95,236.33 122.95,238.656L122.95,241.441L125.963,241.441L125.963,245.412L122.95,245.412L122.95,264.491L116.515,264.491L116.515,245.412L113.639,245.412L113.639,241.441L116.56,241.441C116.515,234.824 115.967,231.308 123.817,231.308C124.594,231.308 125.323,231.354 126.1,231.399L126.1,235.506Z" style="fill:white;fill-rule:nonzero;"/>
        <path d="M150.742,249.657C150.742,246.235 149.875,245.092 147.866,245.092C145.128,245.092 144.899,247.512 144.899,252.303C144.899,259.334 145.493,260.839 147.866,260.839C149.875,260.839 150.833,259.014 150.833,256.003L157.268,256.003C157.268,262.255 153.891,264.947 147.866,264.947C139.559,264.947 138.463,259.878 138.463,252.669C138.463,246.371 139.376,240.985 147.866,240.985C153.799,240.985 157.177,243.631 157.177,249.657L150.742,249.657Z" style="fill:white;fill-rule:nonzero;"/>
        <path d="M167.442,257.328C167.442,258.966 167.716,260.976 169.815,260.976C173.604,260.976 173.01,255.864 173.01,253.354C169.815,253.492 167.442,253.215 167.442,257.328ZM179.309,260.2C179.309,261.617 179.492,263.076 179.629,264.491L173.649,264.491L173.376,261.432L173.285,261.432C171.915,263.804 170.043,264.947 167.259,264.947C162.786,264.947 161.143,261.617 161.143,257.599C161.143,249.977 167.031,249.657 173.01,249.748L173.01,247.967C173.01,246.005 172.736,244.588 170.409,244.588C168.172,244.588 167.99,246.278 167.99,248.104L161.69,248.104C161.69,245.321 162.557,243.541 164.064,242.491C165.525,241.395 167.624,240.985 170.089,240.985C178.259,240.985 179.309,244.498 179.309,248.698L179.309,260.2Z" style="fill:white;fill-rule:nonzero;"/>
        <path d="M182.042,241.441L184.645,241.441L184.645,237.79L191.08,234.912L191.08,241.441L194.412,241.441L194.412,245.412L191.08,245.412L191.08,257.735C191.08,259.468 191.034,260.612 193.133,260.612C193.544,260.612 193.956,260.612 194.274,260.52L194.274,264.491C193.408,264.582 192.495,264.718 190.942,264.718C185.374,264.718 184.645,261.022 184.645,259.608L184.645,245.412L182.042,245.412L182.042,241.441Z" style="fill:white;fill-rule:nonzero;"/>
        <path d="M204.313,264.491L197.878,264.491L197.878,241.441L204.313,241.441L204.313,264.491ZM204.313,231.538L204.313,236.601L197.878,236.601L197.878,231.538L204.313,231.538Z" style="fill:white;fill-rule:nonzero;"/>
        <path d="M221.837,252.303C221.837,247.512 221.609,245.092 218.87,245.092C216.132,245.092 215.904,247.512 215.904,252.303C215.904,259.334 216.497,260.839 218.87,260.839C221.245,260.839 221.837,259.334 221.837,252.303ZM209.468,252.669C209.468,246.371 210.381,240.985 218.87,240.985C227.361,240.985 228.272,246.371 228.272,252.669C228.272,259.878 227.177,264.947 218.87,264.947C210.564,264.947 209.468,259.878 209.468,252.669Z" style="fill:white;fill-rule:nonzero;"/>
        <path d="M239.268,243.768L239.359,243.768C239.999,242.72 240.773,242.035 241.642,241.623C242.554,241.167 243.604,240.985 244.791,240.985C247.849,240.985 250.542,242.811 250.542,246.005L250.542,264.491L244.106,264.491L244.106,248.605C244.106,246.552 243.74,244.956 241.687,244.956C239.632,244.956 239.268,246.552 239.268,248.605L239.268,264.491L232.833,264.491L232.833,241.441L239.268,241.441L239.268,243.768Z" style="fill:white;fill-rule:nonzero;"/>
        <path d="M45.888,110.159C45.888,101.649 45.382,97.968 41.472,97.968C37.561,97.968 37.055,101.649 37.055,110.159C37.055,118.67 37.561,122.351 41.472,122.351C45.382,122.351 45.888,118.67 45.888,110.159ZM30.016,110.159C30.016,101.372 30.016,93 41.472,93C52.927,93 52.927,101.372 52.927,110.159C52.927,118.854 52.927,127.319 41.472,127.319C30.016,127.319 30.016,118.854 30.016,110.159Z" style="fill:white;fill-rule:nonzero;"/>
        <path d="M73.58,106.847L73.58,93.552L80.526,93.552L80.526,126.767L73.58,126.767L73.58,111.954L65.621,111.954L65.621,126.767L58.674,126.767L58.674,93.552L65.621,93.552L65.621,106.847L73.58,106.847Z" style="fill:white;fill-rule:nonzero;"/>
        <path d="M95.567,127.319C86.964,127.319 85.354,122.259 85.722,116.508L92.668,116.508C92.668,119.682 92.807,122.351 96.625,122.351C98.971,122.351 100.122,120.833 100.122,118.578C100.122,112.598 86.136,112.23 86.136,102.338C86.136,97.14 88.62,93 97.085,93C103.848,93 107.207,96.036 106.747,102.983L99.983,102.983C99.983,100.498 99.569,97.968 96.763,97.968C94.509,97.968 93.174,99.21 93.174,101.51C93.174,107.813 107.161,107.261 107.161,117.704C107.161,126.307 100.858,127.319 95.567,127.319Z" style="fill:white;fill-rule:nonzero;"/>
        <path d="M122.983,99.946L122.891,99.946L119.717,114.3L126.341,114.3L122.983,99.946ZM109.596,126.767L118.797,93.552L127.952,93.552L136.969,126.767L129.654,126.767L127.813,119.406L118.336,119.406L116.45,126.767L109.596,126.767Z" style="fill:white;fill-rule:nonzero;"/>
        <path d="M149.249,127.319C140.646,127.319 139.036,122.259 139.404,116.508L146.351,116.508C146.351,119.682 146.489,122.351 150.307,122.351C152.653,122.351 153.803,120.833 153.803,118.578C153.803,112.598 139.818,112.23 139.818,102.338C139.818,97.14 142.302,93 150.767,93C157.53,93 160.888,96.036 160.428,102.983L153.666,102.983C153.666,100.498 153.251,97.968 150.445,97.968C148.191,97.968 146.856,99.21 146.856,101.51C146.856,107.813 160.842,107.261 160.842,117.704C160.842,126.307 154.54,127.319 149.249,127.319Z" style="fill:white;fill-rule:nonzero;"/>
        <path d="M175.375,99.625C177.675,98.336 179.929,96.818 181.585,94.656L187.75,94.656L187.75,126.767L180.804,126.767L180.804,102.063C179.147,103.442 177.261,104.639 175.375,105.651L175.375,99.625Z" style="fill:white;fill-rule:nonzero;"/>
        <path d="M201.227,103.121C201.227,104.776 201.457,107.445 203.757,107.445C206.058,107.445 206.288,104.776 206.288,103.121C206.288,101.556 206.011,98.935 203.757,98.935C201.503,98.935 201.227,101.556 201.227,103.121ZM200.951,118.118C200.951,119.959 201.273,122.489 203.757,122.489C206.241,122.489 206.563,119.959 206.563,118.118C206.563,116.186 206.655,112.414 203.757,112.414C200.859,112.414 200.951,116.186 200.951,118.118ZM194.464,118.532C194.464,114.576 195.062,111.309 199.203,109.837L199.203,109.745C195.568,108.825 194.74,106.157 194.74,102.753C194.74,96.91 197.822,94.242 203.757,94.242C209.692,94.242 212.774,96.91 212.774,102.753C212.774,106.157 211.946,108.825 208.312,109.745L208.312,109.837C212.452,111.309 213.05,114.576 213.05,118.532C213.05,124.559 209.83,127.181 203.757,127.181C197.685,127.181 194.464,124.559 194.464,118.532Z" style="fill:white;fill-rule:nonzero;"/>
        <path d="M221.374,110.712C221.374,120.419 221.604,122.489 224.181,122.489C226.757,122.489 226.987,120.419 226.987,110.712C226.987,100.82 226.941,98.935 224.181,98.935C221.42,98.935 221.374,100.82 221.374,110.712ZM233.474,110.619C233.474,120.694 232.83,127.181 224.181,127.181C215.531,127.181 214.887,120.694 214.887,110.619C214.887,98.336 216.268,94.242 224.181,94.242C232.093,94.242 233.474,98.336 233.474,110.619Z" style="fill:white;fill-rule:nonzero;"/>
        <path d="M241.797,110.712C241.797,120.419 242.027,122.489 244.604,122.489C247.18,122.489 247.41,120.419 247.41,110.712C247.41,100.82 247.364,98.935 244.604,98.935C241.843,98.935 241.797,100.82 241.797,110.712ZM253.897,110.619C253.897,120.694 253.253,127.181 244.604,127.181C235.955,127.181 235.311,120.694 235.311,110.619C235.311,98.336 236.691,94.242 244.604,94.242C252.517,94.242 253.897,98.336 253.897,110.619Z" style="fill:white;fill-rule:nonzero;"/>
        <path d="M257.068,99.625C259.368,98.336 261.622,96.818 263.279,94.656L269.444,94.656L269.444,126.767L262.497,126.767L262.497,102.063C260.841,103.442 258.954,104.639 257.068,105.651L257.068,99.625Z" style="fill:white;fill-rule:nonzero;"/>
    </g>
</svg>
