<?xml version="1.0" encoding="UTF-8" standalone="no"?>
<!DOCTYPE svg PUBLIC "-//W3C//DTD SVG 1.1//EN" "http://www.w3.org/Graphics/SVG/1.1/DTD/svg11.dtd">
<svg width="100%" height="100%" viewBox="0 0 193 202" version="1.1" xmlns="http://www.w3.org/2000/svg" xmlns:xlink="http://www.w3.org/1999/xlink" xml:space="preserve" xmlns:serif="http://www.serif.com/" style="fill-rule:evenodd;clip-rule:evenodd;stroke-linejoin:round;stroke-miterlimit:2;">
    <g transform="matrix(1,0,0,1,-39.75,-38.8)">
        <g transform="matrix(4.16667,0,0,4.16667,0,0)">
            <path d="M47.218,33.951L49.292,31.878L49.292,28.472L44.355,28.471L39.429,33.401L39.429,38.333L39.43,38.333L39.43,38.334L49.292,38.334L49.292,33.951L47.218,33.951Z" style="fill:rgb(33,46,105);fill-rule:nonzero;"/>
        </g>
        <g transform="matrix(4.16667,0,0,4.16667,0,0)">
            <rect x="15.904" y="28.549" width="4.322" height="9.785" style="fill:rgb(33,46,105);fill-rule:nonzero;"/>
        </g>
        <g transform="matrix(4.16667,0,0,4.16667,0,0)">
            <path d="M25.686,28.549L20.791,38.334L30.582,38.334L25.686,28.549Z" style="fill:rgb(33,46,105);fill-rule:nonzero;"/>
        </g>
        <g transform="matrix(4.16667,0,0,4.16667,0,0)">
            <path d="M34.284,30.544L32.21,28.471L28.804,28.471L28.804,33.407L33.734,38.333L38.666,38.334L38.666,38.333L38.667,38.333L38.667,28.471L34.284,28.471L34.284,30.544Z" style="fill:rgb(33,46,105);fill-rule:nonzero;"/>
        </g>
        <g transform="matrix(4.16667,0,0,4.16667,0,0)">
            <path d="M11.94,39.701L11.687,38.908L12.266,38.723L12.972,40.93L12.393,41.115L12.136,40.313L9.736,41.082L9.54,40.469L11.94,39.701Z" style="fill:rgb(33,46,105);fill-rule:nonzero;"/>
        </g>
        <g transform="matrix(4.16667,0,0,4.16667,0,0)">
            <path d="M13.292,41.683L14.135,43.437L13.587,43.7L13.021,42.522L12.441,42.801L12.894,43.741L12.346,44.004L11.895,43.063L11.299,43.349L11.865,44.528L11.318,44.792L10.475,43.038L13.292,41.683Z" style="fill:rgb(33,46,105);fill-rule:nonzero;"/>
        </g>
        <g transform="matrix(4.16667,0,0,4.16667,0,0)">
            <path d="M12.929,45.713C12.819,45.971 12.855,46.27 12.996,46.484C13.135,46.693 13.331,46.765 13.482,46.665C13.629,46.567 13.661,46.393 13.578,46.076L13.509,45.805C13.378,45.287 13.472,44.902 13.828,44.665C14.321,44.338 14.86,44.52 15.197,45.027C15.41,45.348 15.485,45.7 15.384,46.091L14.785,45.979C14.854,45.754 14.819,45.544 14.7,45.363C14.58,45.184 14.391,45.065 14.236,45.168C14.078,45.272 14.094,45.448 14.178,45.79L14.239,46.051C14.354,46.525 14.27,46.926 13.876,47.187C13.406,47.493 12.84,47.335 12.482,46.794C12.205,46.378 12.153,45.909 12.316,45.531L12.929,45.713Z" style="fill:rgb(33,46,105);fill-rule:nonzero;"/>
        </g>
        <g transform="matrix(4.16667,0,0,4.16667,0,0)">
            <path d="M16.25,47.504L15.697,46.881L16.151,46.477L17.692,48.21L17.238,48.614L16.678,47.985L14.793,49.661L14.365,49.18L16.25,47.504Z" style="fill:rgb(33,46,105);fill-rule:nonzero;"/>
        </g>
        <g transform="matrix(4.16667,0,0,4.16667,0,0)">
            <path d="M18.32,48.775L18.797,49.202L16.705,51.532L16.23,51.104L18.32,48.775Z" style="fill:rgb(33,46,105);fill-rule:nonzero;"/>
        </g>
        <g transform="matrix(4.16667,0,0,4.16667,0,0)">
            <path d="M19.729,53.807L19.553,51.213L18.4,52.901L17.872,52.541L19.638,49.952L20.094,50.263L20.27,52.856L21.421,51.168L21.95,51.529L20.185,54.118L19.729,53.807Z" style="fill:rgb(33,46,105);fill-rule:nonzero;"/>
        </g>
        <g transform="matrix(4.16667,0,0,4.16667,0,0)">
            <path d="M22.986,55.576C22.096,55.182 21.719,54.248 22.091,53.41C22.453,52.593 23.37,52.209 24.248,52.598C24.744,52.817 25.052,53.166 25.193,53.575L24.608,53.798C24.518,53.546 24.333,53.31 23.998,53.162C23.45,52.919 22.9,53.171 22.679,53.671C22.448,54.19 22.64,54.748 23.232,55.01C23.466,55.114 23.715,55.171 23.9,55.123L24.12,54.628L23.504,54.354L23.746,53.807L24.931,54.331L24.336,55.673C23.953,55.841 23.441,55.777 22.986,55.576Z" style="fill:rgb(33,46,105);fill-rule:nonzero;"/>
        </g>
        <g transform="matrix(4.16667,0,0,4.16667,0,0)">
            <path d="M27.645,53.804L28.273,53.928L27.784,56.407L29.102,56.667L28.983,57.265L27.038,56.881L27.645,53.804Z" style="fill:rgb(33,46,105);fill-rule:nonzero;"/>
        </g>
        <g transform="matrix(4.16667,0,0,4.16667,0,0)">
            <path d="M32.186,56.239L31.792,55.204L31.32,56.206L32.186,56.239ZM31.541,54.355L32.11,54.377L33.345,57.56L32.675,57.534L32.397,56.807L31.065,56.757L30.734,57.46L30.073,57.435L31.541,54.355Z" style="fill:rgb(33,46,105);fill-rule:nonzero;"/>
        </g>
        <g transform="matrix(4.16667,0,0,4.16667,0,0)">
            <path d="M35.766,56.711C36.003,56.682 36.136,56.509 36.111,56.307C36.086,56.105 35.913,55.968 35.676,55.997L35.042,56.077L35.131,56.791L35.766,56.711ZM35.417,55.482C35.635,55.455 35.765,55.283 35.741,55.091C35.717,54.902 35.548,54.759 35.329,54.786L34.886,54.842L34.974,55.538L35.417,55.482ZM34.179,54.344L35.318,54.2C35.838,54.135 36.293,54.492 36.355,54.987C36.384,55.224 36.312,55.424 36.179,55.574C36.467,55.671 36.688,55.901 36.732,56.252C36.796,56.769 36.435,57.219 35.883,57.288L34.569,57.453L34.179,54.344Z" style="fill:rgb(33,46,105);fill-rule:nonzero;"/>
        </g>
        <g transform="matrix(4.16667,0,0,4.16667,0,0)">
            <path d="M39.428,55.936C39.952,55.777 40.23,55.218 40.071,54.693C39.912,54.17 39.37,53.858 38.846,54.018C38.322,54.177 38.044,54.736 38.203,55.26C38.362,55.784 38.904,56.095 39.428,55.936ZM39.607,56.528C38.75,56.788 37.846,56.306 37.586,55.447C37.326,54.589 37.808,53.686 38.667,53.426C39.525,53.165 40.428,53.648 40.688,54.507C40.948,55.364 40.465,56.268 39.607,56.528Z" style="fill:rgb(33,46,105);fill-rule:nonzero;"/>
        </g>
        <g transform="matrix(4.16667,0,0,4.16667,0,0)">
            <path d="M42.595,53.275C42.808,53.169 42.896,52.981 42.801,52.792C42.704,52.599 42.503,52.562 42.29,52.67L41.857,52.888L42.163,53.494L42.595,53.275ZM41.022,52.651L42.093,52.112C42.617,51.849 43.133,52.042 43.368,52.507C43.556,52.881 43.47,53.22 43.16,53.524L44.789,54.259L44.1,54.605L42.55,53.911L42.409,53.982L43.002,55.159L42.43,55.447L41.022,52.651Z" style="fill:rgb(33,46,105);fill-rule:nonzero;"/>
        </g>
        <g transform="matrix(4.16667,0,0,4.16667,0,0)">
            <path d="M46.552,51.486L45.599,50.926L45.859,52.001L46.552,51.486ZM44.875,50.421L45.331,50.083L48.281,51.79L47.743,52.189L47.074,51.797L46.004,52.589L46.185,53.344L45.655,53.737L44.875,50.421Z" style="fill:rgb(33,46,105);fill-rule:nonzero;"/>
        </g>
        <g transform="matrix(4.16667,0,0,4.16667,0,0)">
            <path d="M47.584,48.939L46.993,49.528L46.563,49.097L48.209,47.459L48.638,47.89L48.041,48.485L49.821,50.274L49.365,50.729L47.584,48.939Z" style="fill:rgb(33,46,105);fill-rule:nonzero;"/>
        </g>
        <g transform="matrix(4.16667,0,0,4.16667,0,0)">
            <path d="M51.63,47.258C51.952,46.815 51.836,46.201 51.393,45.88C50.951,45.557 50.332,45.638 50.009,46.08C49.688,46.522 49.804,47.137 50.247,47.458C50.69,47.779 51.309,47.7 51.63,47.258ZM52.13,47.621C51.604,48.346 50.593,48.506 49.868,47.979C49.143,47.453 48.983,46.441 49.509,45.717C50.037,44.992 51.047,44.832 51.772,45.358C52.497,45.885 52.657,46.896 52.13,47.621Z" style="fill:rgb(33,46,105);fill-rule:nonzero;"/>
        </g>
        <g transform="matrix(4.16667,0,0,4.16667,0,0)">
            <path d="M52.573,43.202C52.678,42.989 52.636,42.786 52.447,42.692C52.253,42.597 52.07,42.688 51.964,42.901L51.75,43.337L52.358,43.638L52.573,43.202ZM50.941,43.649L51.472,42.575C51.732,42.049 52.261,41.893 52.728,42.123C53.103,42.308 53.239,42.632 53.173,43.061L54.917,42.669L54.575,43.36L52.919,43.737L52.848,43.88L54.03,44.464L53.747,45.036L50.941,43.649Z" style="fill:rgb(33,46,105);fill-rule:nonzero;"/>
        </g>
        <g transform="matrix(4.16667,0,0,4.16667,0,0)">
            <path d="M54.233,40.584L52.155,41.141L52.378,40.433L53.731,40.092L52.82,39.031L53.044,38.319L54.43,39.974L55.685,40.37L55.493,40.98L54.233,40.584Z" style="fill:rgb(33,46,105);fill-rule:nonzero;"/>
        </g>
        <g transform="matrix(4.16667,0,0,4.16667,0,0)">
            <path d="M18.959,15.846L17.982,15.325L18.286,16.39L18.959,15.846ZM17.233,14.85L17.677,14.492L20.702,16.077L20.181,16.499L19.493,16.135L18.457,16.974L18.67,17.721L18.155,18.138L17.233,14.85Z" style="fill:rgb(33,46,105);fill-rule:nonzero;"/>
        </g>
        <g transform="matrix(4.16667,0,0,4.16667,0,0)">
            <path d="M20.901,12.296C21.459,11.984 22.09,12.01 22.569,12.317L22.235,12.858C21.917,12.667 21.557,12.637 21.203,12.835C20.726,13.101 20.574,13.706 20.841,14.183C21.108,14.66 21.703,14.847 22.18,14.58C22.533,14.383 22.695,14.059 22.7,13.688L23.335,13.686C23.346,14.256 23.038,14.807 22.481,15.119C21.7,15.556 20.717,15.278 20.28,14.497C19.843,13.717 20.121,12.733 20.901,12.296Z" style="fill:rgb(33,46,105);fill-rule:nonzero;"/>
        </g>
        <g transform="matrix(4.16667,0,0,4.16667,0,0)">
            <path d="M24.755,10.579C25.358,10.369 25.976,10.504 26.395,10.891L25.972,11.365C25.69,11.122 25.341,11.029 24.957,11.162C24.44,11.342 24.187,11.911 24.366,12.428C24.546,12.945 25.099,13.233 25.615,13.054C25.999,12.92 26.216,12.63 26.284,12.265L26.911,12.374C26.822,12.937 26.423,13.427 25.818,13.637C24.973,13.931 24.052,13.485 23.758,12.64C23.464,11.794 23.909,10.873 24.755,10.579Z" style="fill:rgb(33,46,105);fill-rule:nonzero;"/>
        </g>
        <g transform="matrix(4.16667,0,0,4.16667,0,0)">
            <path d="M28.753,10.914C28.988,10.874 29.128,10.721 29.092,10.512C29.055,10.299 28.873,10.205 28.639,10.245L28.16,10.327L28.275,10.997L28.753,10.914ZM27.43,9.857L28.612,9.654C29.191,9.554 29.63,9.891 29.718,10.404C29.789,10.817 29.607,11.117 29.221,11.318L30.565,12.497L29.805,12.628L28.524,11.509L28.368,11.536L28.592,12.836L27.961,12.945L27.43,9.857Z" style="fill:rgb(33,46,105);fill-rule:nonzero;"/>
        </g>
        <g transform="matrix(4.16667,0,0,4.16667,0,0)">
            <path d="M31.188,9.353L33.137,9.312L33.149,9.921L31.84,9.948L31.854,10.592L32.899,10.57L32.911,11.179L31.865,11.201L31.88,11.862L33.19,11.835L33.202,12.443L31.253,12.484L31.188,9.353Z" style="fill:rgb(33,46,105);fill-rule:nonzero;"/>
        </g>
        <g transform="matrix(4.16667,0,0,4.16667,0,0)">
            <path d="M35.287,12.036C35.86,12.112 36.302,11.73 36.374,11.191C36.446,10.653 36.118,10.168 35.544,10.092L35.154,10.04L34.896,11.985L35.287,12.036ZM34.596,9.374L35.621,9.51C36.514,9.628 37.128,10.409 37.013,11.276C36.899,12.143 36.102,12.737 35.21,12.619L34.184,12.483L34.596,9.374Z" style="fill:rgb(33,46,105);fill-rule:nonzero;"/>
        </g>
        <g transform="matrix(4.16667,0,0,4.16667,0,0)">
            <path d="M38.533,10.066L39.151,10.232L38.338,13.254L37.72,13.088L38.533,10.066Z" style="fill:rgb(33,46,105);fill-rule:nonzero;"/>
        </g>
        <g transform="matrix(4.16667,0,0,4.16667,0,0)">
            <path d="M40.881,11.437L40.106,11.132L40.329,10.565L42.488,11.416L42.264,11.983L41.481,11.674L40.555,14.021L39.957,13.786L40.881,11.437Z" style="fill:rgb(33,46,105);fill-rule:nonzero;"/>
        </g>
        <g transform="matrix(4.16667,0,0,4.16667,0,0)">
            <path d="M43.586,11.956L45.286,12.907L44.989,13.438L43.846,12.799L43.533,13.36L44.444,13.87L44.147,14.401L43.235,13.891L42.913,14.468L44.054,15.107L43.757,15.638L42.058,14.686L43.586,11.956Z" style="fill:rgb(33,46,105);fill-rule:nonzero;"/>
        </g>
        <g transform="matrix(4.16667,0,0,4.16667,0,0)">
            <path d="M45.755,16.352C46.21,16.71 46.785,16.607 47.121,16.182C47.457,15.755 47.422,15.172 46.968,14.814L46.66,14.571L45.447,16.109L45.755,16.352ZM46.521,13.714L47.332,14.353C48.039,14.911 48.167,15.894 47.627,16.58C47.086,17.266 46.099,17.37 45.392,16.813L44.582,16.174L46.521,13.714Z" style="fill:rgb(33,46,105);fill-rule:nonzero;"/>
        </g>
    </g>
</svg>
