<?xml version="1.0" encoding="UTF-8" standalone="no"?>
<!DOCTYPE svg PUBLIC "-//W3C//DTD SVG 1.1//EN" "http://www.w3.org/Graphics/SVG/1.1/DTD/svg11.dtd">
<svg width="100%" height="100%" viewBox="0 0 1095 707" version="1.1" xmlns="http://www.w3.org/2000/svg" xmlns:xlink="http://www.w3.org/1999/xlink" xml:space="preserve" xmlns:serif="http://www.serif.com/" style="fill-rule:evenodd;clip-rule:evenodd;stroke-linecap:round;stroke-linejoin:round;stroke-miterlimit:1.5;">
    <g transform="matrix(1,0,0,1,-23.0541,-25.1217)">
        <g transform="matrix(0.962112,0,0,1,-8.06599,-49)">
            <g transform="matrix(147.283,0,0,147.283,28.8108,777.035)">
                <path d="M0.213,-0.504L0.244,-0.614C0.247,-0.625 0.249,-0.634 0.25,-0.641C0.251,-0.649 0.252,-0.656 0.252,-0.661C0.252,-0.675 0.248,-0.683 0.241,-0.685C0.234,-0.688 0.225,-0.689 0.212,-0.69L0.198,-0.69C0.193,-0.691 0.187,-0.691 0.181,-0.692L0.189,-0.724L0.685,-0.724L0.717,-0.535L0.693,-0.535C0.678,-0.576 0.658,-0.612 0.632,-0.644C0.607,-0.676 0.576,-0.692 0.54,-0.693L0.534,-0.693C0.533,-0.692 0.532,-0.692 0.531,-0.692L0.528,-0.692L0.465,-0.693C0.443,-0.692 0.428,-0.69 0.42,-0.687C0.413,-0.684 0.407,-0.677 0.402,-0.666C0.401,-0.663 0.399,-0.66 0.398,-0.656C0.397,-0.653 0.395,-0.649 0.394,-0.645L0.323,-0.386L0.417,-0.386C0.424,-0.385 0.43,-0.386 0.437,-0.387C0.444,-0.388 0.452,-0.391 0.459,-0.394C0.478,-0.402 0.495,-0.416 0.512,-0.435C0.529,-0.454 0.542,-0.48 0.551,-0.511L0.583,-0.512L0.496,-0.197L0.465,-0.197C0.466,-0.203 0.466,-0.209 0.467,-0.215C0.468,-0.222 0.47,-0.228 0.471,-0.235C0.473,-0.244 0.475,-0.252 0.476,-0.261C0.477,-0.27 0.478,-0.278 0.478,-0.285C0.478,-0.302 0.473,-0.315 0.463,-0.326C0.453,-0.337 0.433,-0.343 0.402,-0.345L0.315,-0.346L0.236,-0.079C0.235,-0.074 0.234,-0.069 0.233,-0.064C0.232,-0.06 0.232,-0.056 0.232,-0.053C0.232,-0.044 0.236,-0.037 0.244,-0.034C0.252,-0.031 0.268,-0.03 0.291,-0.03L0.409,-0.031C0.43,-0.03 0.454,-0.035 0.48,-0.046C0.507,-0.057 0.534,-0.08 0.562,-0.116C0.571,-0.127 0.579,-0.14 0.588,-0.155C0.597,-0.17 0.605,-0.186 0.614,-0.204L0.638,-0.197L0.583,0L0.024,0L0.031,-0.031C0.052,-0.03 0.066,-0.032 0.074,-0.037C0.082,-0.042 0.089,-0.053 0.095,-0.069C0.098,-0.078 0.101,-0.089 0.104,-0.102C0.108,-0.115 0.113,-0.131 0.118,-0.149L0.213,-0.504Z" style="fill:rgb(0,81,164);fill-rule:nonzero;"/>
            </g>
            <g transform="matrix(166.548,0,0,147.283,115.237,777.035)">
                <path d="M0.047,-0.268L0.024,-0.283C0.057,-0.352 0.087,-0.398 0.116,-0.423C0.145,-0.448 0.168,-0.46 0.186,-0.46C0.189,-0.46 0.193,-0.46 0.196,-0.459C0.199,-0.458 0.202,-0.457 0.205,-0.456C0.218,-0.449 0.226,-0.439 0.231,-0.426C0.236,-0.413 0.239,-0.397 0.239,-0.38C0.239,-0.371 0.238,-0.361 0.237,-0.351C0.236,-0.342 0.235,-0.332 0.233,-0.322C0.231,-0.311 0.229,-0.3 0.226,-0.289C0.223,-0.278 0.221,-0.268 0.218,-0.258C0.213,-0.242 0.209,-0.228 0.205,-0.215C0.201,-0.203 0.198,-0.194 0.197,-0.188C0.204,-0.203 0.212,-0.22 0.221,-0.239C0.23,-0.258 0.239,-0.278 0.25,-0.298C0.271,-0.336 0.296,-0.371 0.325,-0.404C0.353,-0.436 0.384,-0.453 0.417,-0.456C0.436,-0.456 0.453,-0.45 0.468,-0.438C0.483,-0.425 0.49,-0.406 0.49,-0.379C0.491,-0.37 0.49,-0.362 0.488,-0.353C0.486,-0.344 0.483,-0.333 0.48,-0.322L0.394,-0.087C0.393,-0.083 0.393,-0.08 0.392,-0.077C0.391,-0.074 0.39,-0.071 0.39,-0.068C0.39,-0.063 0.391,-0.06 0.393,-0.057C0.395,-0.054 0.398,-0.052 0.401,-0.052C0.409,-0.051 0.421,-0.059 0.438,-0.075C0.454,-0.09 0.473,-0.117 0.496,-0.156L0.52,-0.142C0.511,-0.123 0.501,-0.107 0.491,-0.092C0.481,-0.077 0.471,-0.063 0.461,-0.052C0.44,-0.026 0.419,-0.007 0.398,0.004C0.377,0.015 0.358,0.021 0.342,0.022C0.327,0.022 0.316,0.017 0.307,0.008C0.298,-0.001 0.293,-0.015 0.293,-0.032C0.293,-0.037 0.294,-0.043 0.295,-0.05C0.296,-0.057 0.297,-0.063 0.299,-0.07L0.394,-0.346C0.395,-0.351 0.396,-0.355 0.397,-0.359C0.398,-0.363 0.398,-0.366 0.398,-0.369C0.399,-0.376 0.398,-0.382 0.395,-0.385C0.392,-0.388 0.388,-0.39 0.383,-0.39C0.376,-0.39 0.368,-0.387 0.359,-0.381C0.349,-0.376 0.339,-0.368 0.328,-0.357C0.322,-0.35 0.316,-0.343 0.309,-0.334C0.302,-0.325 0.296,-0.316 0.291,-0.306C0.285,-0.295 0.279,-0.285 0.274,-0.275C0.269,-0.265 0.263,-0.255 0.258,-0.246C0.256,-0.243 0.254,-0.241 0.253,-0.238C0.251,-0.235 0.249,-0.231 0.248,-0.228C0.234,-0.203 0.22,-0.173 0.205,-0.14C0.19,-0.107 0.171,-0.06 0.15,0L0.047,0L0.15,-0.339C0.151,-0.344 0.153,-0.35 0.154,-0.355C0.155,-0.36 0.155,-0.364 0.155,-0.367C0.155,-0.374 0.154,-0.379 0.152,-0.382C0.15,-0.385 0.147,-0.386 0.144,-0.387C0.135,-0.387 0.123,-0.378 0.106,-0.359C0.089,-0.34 0.071,-0.313 0.052,-0.277C0.051,-0.276 0.051,-0.274 0.05,-0.273C0.049,-0.271 0.048,-0.269 0.047,-0.267L0.047,-0.268Z" style="fill:rgb(0,81,164);fill-rule:nonzero;"/>
            </g>
            <g transform="matrix(146.706,0,-1.92697,147.122,202.39,778.071)">
                <path d="M0.213,-0.362C0.212,-0.361 0.21,-0.361 0.209,-0.36L0.199,-0.36C0.186,-0.36 0.175,-0.362 0.164,-0.365C0.153,-0.368 0.144,-0.372 0.135,-0.376C0.127,-0.379 0.12,-0.383 0.114,-0.386C0.107,-0.389 0.102,-0.391 0.098,-0.391C0.095,-0.391 0.093,-0.39 0.092,-0.389C0.09,-0.388 0.088,-0.387 0.087,-0.385C0.086,-0.384 0.086,-0.382 0.086,-0.381L0.086,-0.378C0.086,-0.373 0.087,-0.37 0.089,-0.367C0.09,-0.364 0.092,-0.362 0.095,-0.359C0.096,-0.358 0.098,-0.356 0.099,-0.355C0.1,-0.354 0.101,-0.354 0.102,-0.353C0.106,-0.349 0.11,-0.344 0.113,-0.339C0.116,-0.333 0.118,-0.325 0.118,-0.314C0.118,-0.304 0.115,-0.296 0.108,-0.291C0.101,-0.285 0.093,-0.282 0.084,-0.282L0.077,-0.282C0.067,-0.283 0.058,-0.288 0.051,-0.297C0.043,-0.306 0.039,-0.318 0.038,-0.335L0.038,-0.337C0.038,-0.338 0.038,-0.339 0.039,-0.34L0.039,-0.345C0.042,-0.378 0.052,-0.403 0.067,-0.418C0.082,-0.433 0.098,-0.443 0.115,-0.446C0.118,-0.447 0.122,-0.447 0.125,-0.448L0.134,-0.448C0.141,-0.448 0.148,-0.448 0.156,-0.447C0.163,-0.446 0.171,-0.446 0.18,-0.445C0.189,-0.444 0.198,-0.443 0.207,-0.442C0.216,-0.441 0.226,-0.441 0.236,-0.441C0.247,-0.441 0.257,-0.442 0.268,-0.443C0.278,-0.444 0.288,-0.445 0.299,-0.448C0.294,-0.437 0.288,-0.426 0.282,-0.415C0.276,-0.404 0.27,-0.394 0.264,-0.383C0.239,-0.338 0.217,-0.297 0.196,-0.259C0.175,-0.221 0.165,-0.187 0.165,-0.157C0.165,-0.144 0.168,-0.131 0.173,-0.119C0.178,-0.107 0.186,-0.096 0.197,-0.086C0.204,-0.08 0.211,-0.076 0.22,-0.073C0.228,-0.07 0.237,-0.069 0.246,-0.069C0.256,-0.069 0.267,-0.07 0.278,-0.073C0.289,-0.076 0.301,-0.08 0.312,-0.085C0.341,-0.099 0.369,-0.121 0.396,-0.152C0.422,-0.183 0.44,-0.218 0.449,-0.259C0.45,-0.264 0.451,-0.27 0.452,-0.275C0.453,-0.28 0.453,-0.284 0.453,-0.288C0.453,-0.297 0.452,-0.304 0.45,-0.311C0.448,-0.318 0.445,-0.324 0.442,-0.33L0.434,-0.345C0.431,-0.352 0.427,-0.36 0.424,-0.369C0.421,-0.378 0.418,-0.388 0.417,-0.401C0.417,-0.417 0.423,-0.429 0.434,-0.438C0.445,-0.447 0.458,-0.451 0.471,-0.452L0.474,-0.452C0.487,-0.452 0.498,-0.448 0.509,-0.441C0.52,-0.434 0.526,-0.423 0.528,-0.408C0.529,-0.405 0.529,-0.402 0.53,-0.399L0.53,-0.391C0.531,-0.388 0.531,-0.385 0.531,-0.382L0.531,-0.374C0.531,-0.365 0.531,-0.356 0.53,-0.347C0.529,-0.339 0.527,-0.33 0.525,-0.321C0.514,-0.267 0.489,-0.215 0.45,-0.165C0.411,-0.114 0.37,-0.073 0.327,-0.041C0.304,-0.024 0.281,-0.01 0.259,-0.001C0.236,0.009 0.216,0.015 0.197,0.016L0.182,0.016C0.147,0.017 0.122,0.009 0.105,-0.007C0.088,-0.022 0.079,-0.044 0.079,-0.073C0.079,-0.092 0.082,-0.113 0.089,-0.136C0.096,-0.159 0.105,-0.185 0.118,-0.212C0.122,-0.224 0.128,-0.236 0.136,-0.249C0.144,-0.261 0.153,-0.274 0.163,-0.287C0.164,-0.288 0.165,-0.29 0.166,-0.291C0.167,-0.292 0.168,-0.294 0.169,-0.295C0.177,-0.306 0.185,-0.318 0.193,-0.329C0.201,-0.34 0.208,-0.35 0.213,-0.361L0.213,-0.362Z" style="fill:rgb(0,81,164);fill-rule:nonzero;"/>
            </g>
            <g transform="matrix(169.894,0,0,147.283,273.062,777.035)">
                <path d="M0.268,-0.157L0.291,-0.142C0.252,-0.067 0.218,-0.021 0.188,-0.006C0.158,0.008 0.129,0.016 0.102,0.016C0.089,0.014 0.08,0.009 0.074,0C0.068,-0.009 0.065,-0.02 0.065,-0.033C0.065,-0.044 0.067,-0.057 0.071,-0.071C0.075,-0.086 0.08,-0.101 0.087,-0.117L0.173,-0.331C0.174,-0.336 0.175,-0.34 0.176,-0.344C0.177,-0.348 0.177,-0.352 0.177,-0.356C0.177,-0.363 0.176,-0.369 0.173,-0.372C0.171,-0.376 0.168,-0.378 0.163,-0.379C0.158,-0.379 0.151,-0.376 0.143,-0.369C0.136,-0.363 0.127,-0.353 0.118,-0.338L0.071,-0.268L0.047,-0.283C0.073,-0.326 0.096,-0.361 0.116,-0.388C0.136,-0.415 0.155,-0.435 0.174,-0.446C0.181,-0.45 0.188,-0.453 0.195,-0.455C0.202,-0.457 0.209,-0.458 0.216,-0.458L0.226,-0.458C0.229,-0.458 0.233,-0.457 0.236,-0.456C0.252,-0.452 0.263,-0.444 0.269,-0.433C0.275,-0.422 0.278,-0.41 0.278,-0.397C0.278,-0.393 0.278,-0.389 0.277,-0.384C0.277,-0.379 0.277,-0.375 0.276,-0.37C0.275,-0.363 0.273,-0.355 0.27,-0.347C0.268,-0.34 0.266,-0.333 0.264,-0.326L0.26,-0.314L0.173,-0.102C0.172,-0.099 0.172,-0.097 0.171,-0.095C0.17,-0.093 0.17,-0.091 0.17,-0.09C0.169,-0.086 0.168,-0.082 0.168,-0.079C0.167,-0.075 0.167,-0.071 0.167,-0.068C0.166,-0.053 0.173,-0.048 0.188,-0.054C0.203,-0.059 0.229,-0.093 0.268,-0.156L0.268,-0.157ZM0.252,-0.559C0.233,-0.558 0.218,-0.564 0.208,-0.576C0.198,-0.588 0.193,-0.601 0.193,-0.616C0.192,-0.631 0.197,-0.645 0.207,-0.657C0.217,-0.67 0.232,-0.676 0.252,-0.676C0.271,-0.676 0.286,-0.67 0.296,-0.658C0.306,-0.646 0.311,-0.633 0.311,-0.618C0.312,-0.603 0.307,-0.59 0.297,-0.577C0.287,-0.564 0.272,-0.558 0.252,-0.558L0.252,-0.559Z" style="fill:rgb(0,81,164);fill-rule:nonzero;"/>
            </g>
            <g transform="matrix(147.283,0,0,147.283,326.028,777.035)">
                <path d="M0.047,0L0.142,-0.331C0.145,-0.338 0.148,-0.344 0.149,-0.35C0.15,-0.357 0.151,-0.362 0.152,-0.367C0.152,-0.372 0.151,-0.376 0.149,-0.379C0.147,-0.382 0.144,-0.384 0.14,-0.385C0.131,-0.385 0.118,-0.376 0.101,-0.358C0.084,-0.341 0.063,-0.31 0.039,-0.267L0.016,-0.283C0.021,-0.291 0.026,-0.3 0.032,-0.31C0.039,-0.32 0.046,-0.33 0.053,-0.34C0.063,-0.354 0.074,-0.368 0.086,-0.381C0.097,-0.395 0.109,-0.407 0.12,-0.418C0.133,-0.429 0.145,-0.438 0.157,-0.445C0.169,-0.452 0.18,-0.456 0.191,-0.456L0.197,-0.456C0.215,-0.453 0.228,-0.446 0.234,-0.433C0.241,-0.42 0.245,-0.406 0.245,-0.39C0.245,-0.386 0.245,-0.382 0.244,-0.377C0.244,-0.373 0.244,-0.369 0.243,-0.364C0.242,-0.359 0.241,-0.355 0.24,-0.35C0.239,-0.346 0.237,-0.342 0.236,-0.338L0.189,-0.181C0.194,-0.191 0.199,-0.201 0.203,-0.212C0.208,-0.223 0.214,-0.233 0.219,-0.244C0.243,-0.295 0.27,-0.342 0.299,-0.384C0.328,-0.427 0.363,-0.448 0.402,-0.448C0.421,-0.448 0.435,-0.444 0.444,-0.435C0.453,-0.427 0.459,-0.418 0.462,-0.409C0.463,-0.404 0.464,-0.4 0.465,-0.396L0.465,-0.385C0.463,-0.364 0.457,-0.35 0.447,-0.343C0.437,-0.335 0.426,-0.331 0.415,-0.331C0.404,-0.331 0.395,-0.333 0.386,-0.338C0.377,-0.343 0.372,-0.348 0.37,-0.353C0.367,-0.36 0.363,-0.366 0.359,-0.369C0.355,-0.372 0.351,-0.373 0.346,-0.374C0.335,-0.375 0.322,-0.367 0.309,-0.35C0.296,-0.334 0.282,-0.313 0.269,-0.288C0.26,-0.271 0.251,-0.254 0.242,-0.235C0.233,-0.216 0.225,-0.196 0.216,-0.176C0.201,-0.14 0.188,-0.106 0.176,-0.074C0.164,-0.041 0.155,-0.017 0.15,0L0.047,0Z" style="fill:rgb(0,81,164);fill-rule:nonzero;"/>
            </g>
            <g transform="matrix(163.04,0,0,147.283,382.874,777.035)">
                <path d="M0.047,-0.276C0.066,-0.326 0.093,-0.369 0.128,-0.404C0.163,-0.439 0.207,-0.457 0.262,-0.458L0.27,-0.458C0.272,-0.458 0.274,-0.458 0.277,-0.457L0.291,-0.456C0.331,-0.45 0.361,-0.43 0.38,-0.395C0.4,-0.361 0.41,-0.321 0.41,-0.274C0.41,-0.256 0.409,-0.238 0.406,-0.219C0.403,-0.201 0.399,-0.183 0.394,-0.164C0.377,-0.107 0.349,-0.063 0.309,-0.031C0.269,0.001 0.227,0.018 0.182,0.02L0.173,0.02C0.166,0.02 0.16,0.02 0.154,0.019C0.147,0.018 0.141,0.017 0.134,0.016C0.097,0.005 0.07,-0.017 0.054,-0.05C0.039,-0.084 0.031,-0.121 0.031,-0.162L0.032,-0.195C0.033,-0.209 0.035,-0.223 0.038,-0.236C0.041,-0.249 0.044,-0.262 0.047,-0.275L0.047,-0.276ZM0.291,-0.213C0.3,-0.239 0.307,-0.265 0.312,-0.29C0.317,-0.315 0.32,-0.338 0.32,-0.358C0.32,-0.377 0.317,-0.392 0.311,-0.403C0.306,-0.415 0.296,-0.422 0.283,-0.424L0.278,-0.424C0.261,-0.424 0.244,-0.412 0.228,-0.389C0.211,-0.366 0.197,-0.341 0.185,-0.314C0.178,-0.299 0.173,-0.285 0.168,-0.272C0.163,-0.258 0.16,-0.246 0.157,-0.235C0.154,-0.225 0.151,-0.215 0.148,-0.204C0.145,-0.194 0.142,-0.184 0.14,-0.173C0.135,-0.154 0.132,-0.136 0.13,-0.118C0.127,-0.101 0.126,-0.085 0.126,-0.07C0.126,-0.053 0.128,-0.038 0.132,-0.026C0.135,-0.015 0.141,-0.008 0.15,-0.007C0.151,-0.007 0.152,-0.007 0.153,-0.006L0.155,-0.006C0.156,-0.005 0.157,-0.005 0.158,-0.005L0.16,-0.005C0.166,-0.005 0.172,-0.006 0.178,-0.009C0.184,-0.012 0.19,-0.017 0.196,-0.023C0.213,-0.038 0.23,-0.063 0.246,-0.096C0.263,-0.13 0.278,-0.169 0.291,-0.212L0.291,-0.213Z" style="fill:rgb(0,81,164);fill-rule:nonzero;"/>
            </g>
            <g transform="matrix(161.731,0,0,147.283,449.757,777.035)">
                <path d="M0.047,-0.268L0.024,-0.283C0.057,-0.352 0.087,-0.398 0.116,-0.423C0.145,-0.448 0.168,-0.46 0.186,-0.46C0.189,-0.46 0.193,-0.46 0.196,-0.459C0.199,-0.458 0.202,-0.457 0.205,-0.456C0.218,-0.449 0.226,-0.439 0.231,-0.426C0.236,-0.413 0.239,-0.397 0.239,-0.38C0.239,-0.371 0.238,-0.361 0.237,-0.351C0.236,-0.342 0.235,-0.332 0.233,-0.322C0.231,-0.311 0.229,-0.3 0.226,-0.289C0.223,-0.278 0.221,-0.268 0.218,-0.258C0.213,-0.242 0.209,-0.228 0.205,-0.215C0.201,-0.203 0.198,-0.194 0.197,-0.188C0.204,-0.203 0.212,-0.22 0.221,-0.239C0.23,-0.258 0.239,-0.278 0.25,-0.298C0.271,-0.336 0.296,-0.371 0.325,-0.404C0.353,-0.436 0.384,-0.453 0.417,-0.456C0.436,-0.456 0.453,-0.45 0.468,-0.438C0.483,-0.425 0.49,-0.406 0.49,-0.379C0.491,-0.37 0.49,-0.362 0.488,-0.353C0.486,-0.344 0.483,-0.333 0.48,-0.322L0.394,-0.087C0.393,-0.083 0.393,-0.08 0.392,-0.077C0.391,-0.074 0.39,-0.071 0.39,-0.068C0.39,-0.063 0.391,-0.06 0.393,-0.057C0.395,-0.054 0.398,-0.052 0.401,-0.052C0.409,-0.051 0.421,-0.059 0.438,-0.075C0.454,-0.09 0.473,-0.117 0.496,-0.156L0.52,-0.142C0.511,-0.123 0.501,-0.107 0.491,-0.092C0.481,-0.077 0.471,-0.063 0.461,-0.052C0.44,-0.026 0.419,-0.007 0.398,0.004C0.377,0.015 0.358,0.021 0.342,0.022C0.327,0.022 0.316,0.017 0.307,0.008C0.298,-0.001 0.293,-0.015 0.293,-0.032C0.293,-0.037 0.294,-0.043 0.295,-0.05C0.296,-0.057 0.297,-0.063 0.299,-0.07L0.394,-0.346C0.395,-0.351 0.396,-0.355 0.397,-0.359C0.398,-0.363 0.398,-0.366 0.398,-0.369C0.399,-0.376 0.398,-0.382 0.395,-0.385C0.392,-0.388 0.388,-0.39 0.383,-0.39C0.376,-0.39 0.368,-0.387 0.359,-0.381C0.349,-0.376 0.339,-0.368 0.328,-0.357C0.322,-0.35 0.316,-0.343 0.309,-0.334C0.302,-0.325 0.296,-0.316 0.291,-0.306C0.285,-0.295 0.279,-0.285 0.274,-0.275C0.269,-0.265 0.263,-0.255 0.258,-0.246C0.256,-0.243 0.254,-0.241 0.253,-0.238C0.251,-0.235 0.249,-0.231 0.248,-0.228C0.234,-0.203 0.22,-0.173 0.205,-0.14C0.19,-0.107 0.171,-0.06 0.15,0L0.047,0L0.15,-0.339C0.151,-0.344 0.153,-0.35 0.154,-0.355C0.155,-0.36 0.155,-0.364 0.155,-0.367C0.155,-0.374 0.154,-0.379 0.152,-0.382C0.15,-0.385 0.147,-0.386 0.144,-0.387C0.135,-0.387 0.123,-0.378 0.106,-0.359C0.089,-0.34 0.071,-0.313 0.052,-0.277C0.051,-0.276 0.051,-0.274 0.05,-0.273C0.049,-0.271 0.048,-0.269 0.047,-0.267L0.047,-0.268Z" style="fill:rgb(0,81,164);fill-rule:nonzero;"/>
            </g>
            <g transform="matrix(147.283,0,0,147.283,537.446,777.035)">
                <path d="M0.047,0L0.15,-0.346C0.151,-0.349 0.152,-0.352 0.152,-0.355C0.153,-0.358 0.153,-0.361 0.153,-0.364C0.153,-0.382 0.144,-0.388 0.125,-0.382C0.107,-0.377 0.081,-0.338 0.047,-0.267L0.024,-0.283C0.028,-0.29 0.032,-0.298 0.036,-0.306C0.04,-0.315 0.044,-0.323 0.048,-0.331C0.064,-0.362 0.082,-0.391 0.102,-0.417C0.123,-0.444 0.147,-0.457 0.174,-0.457L0.181,-0.457C0.184,-0.457 0.186,-0.457 0.189,-0.456C0.204,-0.453 0.215,-0.445 0.221,-0.43C0.227,-0.415 0.23,-0.398 0.231,-0.378C0.231,-0.37 0.231,-0.362 0.23,-0.353C0.229,-0.345 0.228,-0.337 0.227,-0.328C0.225,-0.316 0.223,-0.304 0.22,-0.292C0.217,-0.281 0.215,-0.27 0.212,-0.26C0.209,-0.25 0.207,-0.241 0.204,-0.233C0.201,-0.224 0.199,-0.217 0.197,-0.212C0.204,-0.222 0.212,-0.238 0.222,-0.26C0.233,-0.282 0.245,-0.305 0.259,-0.329C0.277,-0.361 0.298,-0.39 0.322,-0.416C0.346,-0.443 0.373,-0.456 0.402,-0.456C0.427,-0.455 0.445,-0.447 0.454,-0.432C0.463,-0.418 0.468,-0.401 0.468,-0.38C0.468,-0.37 0.467,-0.36 0.465,-0.349C0.464,-0.339 0.462,-0.328 0.459,-0.317C0.457,-0.308 0.454,-0.298 0.451,-0.289C0.448,-0.28 0.446,-0.271 0.443,-0.262C0.44,-0.253 0.436,-0.244 0.433,-0.235C0.43,-0.226 0.428,-0.219 0.425,-0.212C0.434,-0.223 0.443,-0.24 0.453,-0.261C0.463,-0.282 0.474,-0.303 0.487,-0.326C0.504,-0.357 0.524,-0.386 0.547,-0.413C0.57,-0.44 0.598,-0.454 0.63,-0.456C0.657,-0.456 0.677,-0.447 0.688,-0.43C0.699,-0.413 0.705,-0.392 0.705,-0.369L0.704,-0.348C0.703,-0.341 0.701,-0.334 0.7,-0.327C0.698,-0.32 0.696,-0.313 0.693,-0.306L0.622,-0.118C0.617,-0.104 0.614,-0.092 0.612,-0.083C0.61,-0.074 0.609,-0.066 0.608,-0.061C0.608,-0.043 0.616,-0.04 0.632,-0.052C0.648,-0.063 0.665,-0.082 0.684,-0.107C0.69,-0.114 0.696,-0.122 0.701,-0.131C0.706,-0.139 0.712,-0.147 0.717,-0.156L0.732,-0.142C0.709,-0.094 0.683,-0.054 0.655,-0.023C0.628,0.008 0.598,0.024 0.567,0.024C0.551,0.024 0.538,0.019 0.528,0.008C0.518,-0.003 0.513,-0.018 0.513,-0.039C0.513,-0.048 0.514,-0.059 0.517,-0.071C0.52,-0.083 0.523,-0.096 0.528,-0.109L0.606,-0.323C0.608,-0.328 0.61,-0.333 0.611,-0.338C0.612,-0.343 0.612,-0.348 0.612,-0.353C0.613,-0.364 0.611,-0.372 0.606,-0.379C0.601,-0.386 0.595,-0.389 0.587,-0.39C0.578,-0.39 0.568,-0.385 0.557,-0.376C0.546,-0.367 0.533,-0.351 0.52,-0.33C0.489,-0.279 0.461,-0.226 0.436,-0.171C0.411,-0.116 0.389,-0.059 0.37,0L0.268,0L0.346,-0.244C0.355,-0.273 0.362,-0.297 0.367,-0.316C0.371,-0.335 0.373,-0.35 0.373,-0.361C0.373,-0.37 0.372,-0.377 0.37,-0.382C0.367,-0.386 0.364,-0.388 0.359,-0.388C0.352,-0.389 0.344,-0.385 0.334,-0.376C0.324,-0.367 0.312,-0.354 0.299,-0.338C0.28,-0.31 0.255,-0.265 0.226,-0.204C0.196,-0.143 0.165,-0.075 0.134,0L0.047,0Z" style="fill:rgb(0,81,164);fill-rule:nonzero;"/>
            </g>
            <g transform="matrix(147.283,0,0,147.283,645.7,777.035)">
                <path d="M0.346,-0.157L0.37,-0.142C0.365,-0.133 0.36,-0.122 0.353,-0.111C0.347,-0.1 0.34,-0.09 0.331,-0.079C0.312,-0.054 0.287,-0.032 0.258,-0.011C0.229,0.009 0.195,0.019 0.158,0.019C0.153,0.019 0.148,0.019 0.142,0.018C0.137,0.018 0.131,0.017 0.126,0.016C0.089,0.009 0.064,-0.008 0.05,-0.035C0.037,-0.063 0.03,-0.093 0.03,-0.125C0.03,-0.148 0.032,-0.171 0.037,-0.192C0.042,-0.213 0.048,-0.23 0.055,-0.243C0.06,-0.254 0.066,-0.265 0.073,-0.278C0.08,-0.29 0.088,-0.302 0.097,-0.315C0.12,-0.347 0.149,-0.377 0.184,-0.405C0.22,-0.433 0.264,-0.45 0.315,-0.456C0.32,-0.456 0.325,-0.456 0.33,-0.455C0.335,-0.455 0.34,-0.454 0.345,-0.453C0.365,-0.449 0.383,-0.441 0.4,-0.428C0.417,-0.416 0.425,-0.399 0.425,-0.377L0.425,-0.37C0.425,-0.328 0.409,-0.295 0.377,-0.271C0.346,-0.246 0.311,-0.226 0.273,-0.211C0.254,-0.204 0.235,-0.197 0.216,-0.19C0.198,-0.184 0.182,-0.178 0.168,-0.172C0.165,-0.171 0.161,-0.169 0.158,-0.168C0.155,-0.167 0.153,-0.165 0.15,-0.164C0.147,-0.145 0.144,-0.128 0.142,-0.114C0.14,-0.1 0.139,-0.088 0.139,-0.079C0.139,-0.065 0.141,-0.054 0.145,-0.047C0.15,-0.04 0.156,-0.035 0.165,-0.03C0.168,-0.029 0.172,-0.028 0.174,-0.027C0.177,-0.026 0.181,-0.026 0.185,-0.026C0.204,-0.026 0.227,-0.035 0.255,-0.054C0.283,-0.073 0.313,-0.107 0.346,-0.156L0.346,-0.157ZM0.157,-0.205C0.188,-0.208 0.218,-0.221 0.246,-0.244C0.273,-0.267 0.294,-0.291 0.309,-0.316C0.314,-0.326 0.319,-0.336 0.322,-0.346C0.325,-0.356 0.326,-0.365 0.326,-0.374C0.326,-0.383 0.325,-0.391 0.322,-0.398C0.319,-0.405 0.314,-0.411 0.307,-0.416C0.304,-0.419 0.301,-0.42 0.298,-0.421C0.295,-0.422 0.291,-0.423 0.288,-0.423C0.277,-0.423 0.266,-0.418 0.254,-0.407C0.242,-0.396 0.23,-0.38 0.217,-0.359C0.207,-0.34 0.197,-0.318 0.187,-0.292C0.176,-0.267 0.166,-0.237 0.157,-0.204L0.157,-0.205Z" style="fill:rgb(0,81,164);fill-rule:nonzero;"/>
            </g>
            <g transform="matrix(147.283,0,0,147.283,705.439,777.035)">
                <path d="M0.047,-0.268L0.024,-0.283C0.057,-0.352 0.087,-0.398 0.116,-0.423C0.145,-0.448 0.168,-0.46 0.186,-0.46C0.189,-0.46 0.193,-0.46 0.196,-0.459C0.199,-0.458 0.202,-0.457 0.205,-0.456C0.218,-0.449 0.226,-0.439 0.231,-0.426C0.236,-0.413 0.239,-0.397 0.239,-0.38C0.239,-0.371 0.238,-0.361 0.237,-0.351C0.236,-0.342 0.235,-0.332 0.233,-0.322C0.231,-0.311 0.229,-0.3 0.226,-0.289C0.223,-0.278 0.221,-0.268 0.218,-0.258C0.213,-0.242 0.209,-0.228 0.205,-0.215C0.201,-0.203 0.198,-0.194 0.197,-0.188C0.204,-0.203 0.212,-0.22 0.221,-0.239C0.23,-0.258 0.239,-0.278 0.25,-0.298C0.271,-0.336 0.296,-0.371 0.325,-0.404C0.353,-0.436 0.384,-0.453 0.417,-0.456C0.436,-0.456 0.453,-0.45 0.468,-0.438C0.483,-0.425 0.49,-0.406 0.49,-0.379C0.491,-0.37 0.49,-0.362 0.488,-0.353C0.486,-0.344 0.483,-0.333 0.48,-0.322L0.394,-0.087C0.393,-0.083 0.393,-0.08 0.392,-0.077C0.391,-0.074 0.39,-0.071 0.39,-0.068C0.39,-0.063 0.391,-0.06 0.393,-0.057C0.395,-0.054 0.398,-0.052 0.401,-0.052C0.409,-0.051 0.421,-0.059 0.438,-0.075C0.454,-0.09 0.473,-0.117 0.496,-0.156L0.52,-0.142C0.511,-0.123 0.501,-0.107 0.491,-0.092C0.481,-0.077 0.471,-0.063 0.461,-0.052C0.44,-0.026 0.419,-0.007 0.398,0.004C0.377,0.015 0.358,0.021 0.342,0.022C0.327,0.022 0.316,0.017 0.307,0.008C0.298,-0.001 0.293,-0.015 0.293,-0.032C0.293,-0.037 0.294,-0.043 0.295,-0.05C0.296,-0.057 0.297,-0.063 0.299,-0.07L0.394,-0.346C0.395,-0.351 0.396,-0.355 0.397,-0.359C0.398,-0.363 0.398,-0.366 0.398,-0.369C0.399,-0.376 0.398,-0.382 0.395,-0.385C0.392,-0.388 0.388,-0.39 0.383,-0.39C0.376,-0.39 0.368,-0.387 0.359,-0.381C0.349,-0.376 0.339,-0.368 0.328,-0.357C0.322,-0.35 0.316,-0.343 0.309,-0.334C0.302,-0.325 0.296,-0.316 0.291,-0.306C0.285,-0.295 0.279,-0.285 0.274,-0.275C0.269,-0.265 0.263,-0.255 0.258,-0.246C0.256,-0.243 0.254,-0.241 0.253,-0.238C0.251,-0.235 0.249,-0.231 0.248,-0.228C0.234,-0.203 0.22,-0.173 0.205,-0.14C0.19,-0.107 0.171,-0.06 0.15,0L0.047,0L0.15,-0.339C0.151,-0.344 0.153,-0.35 0.154,-0.355C0.155,-0.36 0.155,-0.364 0.155,-0.367C0.155,-0.374 0.154,-0.379 0.152,-0.382C0.15,-0.385 0.147,-0.386 0.144,-0.387C0.135,-0.387 0.123,-0.378 0.106,-0.359C0.089,-0.34 0.071,-0.313 0.052,-0.277C0.051,-0.276 0.051,-0.274 0.05,-0.273C0.049,-0.271 0.048,-0.269 0.047,-0.267L0.047,-0.268Z" style="fill:rgb(0,81,164);fill-rule:nonzero;"/>
            </g>
            <g transform="matrix(147.283,0,0,147.283,782.379,777.035)">
                <path d="M0.15,-0.441L0.181,-0.535C0.188,-0.538 0.196,-0.542 0.204,-0.545C0.213,-0.549 0.221,-0.553 0.229,-0.558C0.238,-0.563 0.248,-0.569 0.257,-0.575C0.266,-0.582 0.275,-0.589 0.283,-0.597L0.299,-0.598L0.252,-0.441L0.339,-0.441L0.323,-0.394L0.236,-0.394L0.142,-0.094C0.141,-0.089 0.141,-0.085 0.14,-0.082L0.14,-0.074C0.14,-0.055 0.146,-0.049 0.157,-0.056C0.168,-0.063 0.181,-0.074 0.195,-0.091L0.215,-0.117C0.221,-0.126 0.226,-0.134 0.231,-0.142C0.236,-0.151 0.241,-0.158 0.244,-0.164L0.268,-0.15C0.257,-0.127 0.245,-0.107 0.232,-0.09C0.219,-0.073 0.206,-0.057 0.193,-0.044C0.173,-0.024 0.153,-0.009 0.134,0C0.115,0.009 0.098,0.014 0.083,0.014C0.068,0.014 0.057,0.01 0.048,0.002C0.039,-0.006 0.035,-0.018 0.035,-0.034C0.035,-0.038 0.035,-0.042 0.036,-0.047C0.037,-0.052 0.038,-0.057 0.039,-0.062L0.134,-0.394L0.063,-0.394L0.079,-0.441L0.15,-0.441Z" style="fill:rgb(0,81,164);fill-rule:nonzero;"/>
            </g>
            <g transform="matrix(147.283,0,0,147.283,820.917,777.035)">
                <path d="M0.504,-0.142C0.494,-0.121 0.483,-0.103 0.472,-0.087C0.462,-0.071 0.451,-0.057 0.44,-0.044C0.422,-0.024 0.404,-0.009 0.387,0.001C0.37,0.012 0.354,0.017 0.34,0.017C0.326,0.017 0.315,0.012 0.306,0.001C0.297,-0.009 0.293,-0.025 0.293,-0.046C0.292,-0.057 0.293,-0.068 0.296,-0.081C0.299,-0.094 0.302,-0.109 0.307,-0.125C0.283,-0.08 0.256,-0.046 0.226,-0.023C0.196,-0.001 0.163,0.011 0.127,0.011C0.122,0.011 0.116,0.011 0.111,0.01C0.105,0.01 0.099,0.009 0.094,0.008C0.073,0.003 0.055,-0.009 0.041,-0.03C0.027,-0.05 0.02,-0.076 0.02,-0.108C0.02,-0.135 0.026,-0.164 0.037,-0.197C0.048,-0.229 0.067,-0.263 0.094,-0.298C0.127,-0.341 0.164,-0.379 0.205,-0.41C0.246,-0.442 0.287,-0.458 0.33,-0.458L0.342,-0.458C0.346,-0.457 0.35,-0.457 0.354,-0.456C0.361,-0.455 0.368,-0.452 0.375,-0.449C0.381,-0.446 0.387,-0.442 0.392,-0.438C0.397,-0.435 0.401,-0.432 0.406,-0.429C0.411,-0.426 0.415,-0.423 0.419,-0.422C0.421,-0.421 0.423,-0.421 0.425,-0.421C0.426,-0.42 0.428,-0.42 0.43,-0.42C0.435,-0.42 0.441,-0.422 0.447,-0.426C0.452,-0.43 0.458,-0.437 0.465,-0.448L0.504,-0.449L0.402,-0.126C0.399,-0.116 0.396,-0.107 0.394,-0.098C0.393,-0.089 0.392,-0.082 0.392,-0.075C0.392,-0.068 0.393,-0.063 0.395,-0.06C0.396,-0.056 0.399,-0.054 0.402,-0.054C0.409,-0.053 0.418,-0.06 0.431,-0.075C0.444,-0.09 0.46,-0.114 0.48,-0.149L0.504,-0.142ZM0.331,-0.228C0.346,-0.259 0.356,-0.285 0.361,-0.309C0.366,-0.332 0.369,-0.351 0.369,-0.367C0.369,-0.382 0.367,-0.393 0.364,-0.401C0.361,-0.409 0.358,-0.414 0.354,-0.416C0.349,-0.419 0.345,-0.421 0.341,-0.422C0.336,-0.423 0.332,-0.424 0.328,-0.424C0.309,-0.424 0.29,-0.415 0.273,-0.396C0.255,-0.378 0.239,-0.358 0.226,-0.335C0.215,-0.317 0.205,-0.3 0.198,-0.284C0.19,-0.268 0.184,-0.257 0.181,-0.251C0.178,-0.245 0.175,-0.238 0.172,-0.229L0.154,-0.179C0.151,-0.171 0.148,-0.163 0.146,-0.154C0.142,-0.142 0.139,-0.13 0.137,-0.117C0.134,-0.105 0.133,-0.094 0.133,-0.084C0.133,-0.073 0.135,-0.063 0.139,-0.055C0.142,-0.046 0.148,-0.041 0.157,-0.038C0.159,-0.037 0.161,-0.037 0.163,-0.037L0.169,-0.037C0.194,-0.037 0.218,-0.05 0.241,-0.076C0.264,-0.102 0.283,-0.131 0.3,-0.162C0.307,-0.173 0.313,-0.185 0.318,-0.196C0.323,-0.207 0.327,-0.217 0.331,-0.227L0.331,-0.228Z" style="fill:rgb(0,81,164);fill-rule:nonzero;"/>
            </g>
            <g transform="matrix(147.283,0,0,147.283,892.858,777.035)">
                <path d="M0.189,-0.646C0.19,-0.651 0.191,-0.655 0.192,-0.659C0.193,-0.663 0.193,-0.667 0.193,-0.67C0.194,-0.683 0.19,-0.691 0.182,-0.695C0.174,-0.699 0.165,-0.702 0.155,-0.705L0.151,-0.705C0.15,-0.706 0.148,-0.706 0.147,-0.707L0.144,-0.707C0.143,-0.708 0.143,-0.708 0.142,-0.708L0.15,-0.732L0.315,-0.732L0.126,-0.087C0.125,-0.084 0.125,-0.082 0.124,-0.079L0.124,-0.073C0.124,-0.072 0.124,-0.07 0.123,-0.069L0.123,-0.067C0.123,-0.046 0.135,-0.044 0.158,-0.061C0.18,-0.079 0.206,-0.112 0.233,-0.159C0.234,-0.16 0.234,-0.16 0.235,-0.161C0.235,-0.162 0.235,-0.163 0.236,-0.164L0.26,-0.15C0.221,-0.071 0.183,-0.023 0.147,-0.007C0.112,0.008 0.086,0.016 0.071,0.016L0.066,0.016C0.065,0.016 0.063,0.016 0.062,0.015C0.052,0.014 0.043,0.01 0.035,0.002C0.027,-0.005 0.023,-0.02 0.023,-0.041C0.023,-0.052 0.024,-0.065 0.026,-0.08C0.029,-0.095 0.033,-0.113 0.039,-0.133L0.189,-0.646Z" style="fill:rgb(0,81,164);fill-rule:nonzero;"/>
            </g>
            <g transform="matrix(147.283,0,0,147.283,953.627,777.035)">
                <path d="M0.22,-0.425L0.268,-0.598C0.271,-0.607 0.273,-0.616 0.275,-0.625C0.276,-0.633 0.277,-0.64 0.277,-0.647C0.277,-0.662 0.271,-0.674 0.259,-0.681C0.248,-0.688 0.224,-0.692 0.189,-0.692L0.197,-0.724L0.543,-0.724L0.535,-0.693C0.496,-0.692 0.469,-0.686 0.452,-0.674C0.435,-0.662 0.421,-0.636 0.409,-0.597L0.283,-0.157C0.276,-0.134 0.271,-0.114 0.268,-0.099C0.265,-0.084 0.263,-0.071 0.263,-0.062C0.263,-0.046 0.267,-0.037 0.276,-0.034C0.284,-0.031 0.295,-0.03 0.308,-0.03L0.315,-0.03L0.425,-0.031C0.464,-0.034 0.497,-0.044 0.524,-0.061C0.551,-0.079 0.578,-0.103 0.603,-0.134C0.611,-0.145 0.619,-0.156 0.628,-0.167C0.637,-0.179 0.645,-0.191 0.654,-0.204L0.677,-0.197L0.614,0L0.008,0L0.016,-0.031C0.039,-0.03 0.06,-0.034 0.079,-0.041C0.098,-0.048 0.114,-0.074 0.126,-0.117L0.22,-0.425Z" style="fill:rgb(0,81,164);fill-rule:nonzero;"/>
            </g>
            <g transform="matrix(147.283,0,0,147.283,1051.77,777.035)">
                <path d="M0.15,-0.441L0.181,-0.535C0.188,-0.538 0.196,-0.542 0.204,-0.545C0.213,-0.549 0.221,-0.553 0.229,-0.558C0.238,-0.563 0.248,-0.569 0.257,-0.575C0.266,-0.582 0.275,-0.589 0.283,-0.597L0.299,-0.598L0.252,-0.441L0.339,-0.441L0.323,-0.394L0.236,-0.394L0.142,-0.094C0.141,-0.089 0.141,-0.085 0.14,-0.082L0.14,-0.074C0.14,-0.055 0.146,-0.049 0.157,-0.056C0.168,-0.063 0.181,-0.074 0.195,-0.091L0.215,-0.117C0.221,-0.126 0.226,-0.134 0.231,-0.142C0.236,-0.151 0.241,-0.158 0.244,-0.164L0.268,-0.15C0.257,-0.127 0.245,-0.107 0.232,-0.09C0.219,-0.073 0.206,-0.057 0.193,-0.044C0.173,-0.024 0.153,-0.009 0.134,0C0.115,0.009 0.098,0.014 0.083,0.014C0.068,0.014 0.057,0.01 0.048,0.002C0.039,-0.006 0.035,-0.018 0.035,-0.034C0.035,-0.038 0.035,-0.042 0.036,-0.047C0.037,-0.052 0.038,-0.057 0.039,-0.062L0.134,-0.394L0.063,-0.394L0.079,-0.441L0.15,-0.441Z" style="fill:rgb(0,81,164);fill-rule:nonzero;"/>
            </g>
            <g transform="matrix(147.283,0,0,147.283,1083.31,777.035)">
                <path d="M0.402,-0.441L0.465,-0.654C0.466,-0.657 0.467,-0.66 0.468,-0.663C0.469,-0.667 0.469,-0.67 0.469,-0.673C0.47,-0.68 0.466,-0.687 0.458,-0.692C0.451,-0.697 0.434,-0.7 0.409,-0.7L0.417,-0.732L0.591,-0.732L0.409,-0.134C0.404,-0.117 0.401,-0.104 0.398,-0.093C0.396,-0.082 0.395,-0.073 0.395,-0.066C0.394,-0.046 0.402,-0.042 0.417,-0.053C0.432,-0.064 0.449,-0.084 0.467,-0.113C0.472,-0.121 0.477,-0.129 0.482,-0.137C0.487,-0.146 0.491,-0.155 0.496,-0.164L0.52,-0.15C0.509,-0.125 0.496,-0.102 0.483,-0.083C0.47,-0.064 0.457,-0.047 0.444,-0.033C0.427,-0.015 0.41,-0.002 0.394,0.007C0.378,0.016 0.363,0.02 0.35,0.02C0.335,0.02 0.322,0.014 0.312,0.002C0.303,-0.009 0.298,-0.027 0.298,-0.051C0.298,-0.063 0.299,-0.076 0.302,-0.091C0.305,-0.106 0.309,-0.123 0.315,-0.141C0.31,-0.132 0.305,-0.122 0.298,-0.111C0.292,-0.1 0.285,-0.088 0.276,-0.077C0.259,-0.053 0.239,-0.031 0.215,-0.012C0.192,0.007 0.166,0.017 0.138,0.018C0.131,0.018 0.124,0.017 0.116,0.015C0.109,0.014 0.101,0.011 0.094,0.008C0.071,-0.003 0.055,-0.019 0.044,-0.039C0.034,-0.06 0.029,-0.082 0.028,-0.107C0.028,-0.126 0.031,-0.145 0.036,-0.166C0.041,-0.187 0.049,-0.207 0.058,-0.228C0.069,-0.251 0.083,-0.274 0.098,-0.297C0.113,-0.32 0.131,-0.341 0.15,-0.361C0.161,-0.373 0.173,-0.384 0.184,-0.393C0.196,-0.403 0.208,-0.412 0.22,-0.419C0.241,-0.432 0.262,-0.442 0.283,-0.447C0.304,-0.453 0.324,-0.456 0.341,-0.456C0.354,-0.456 0.366,-0.455 0.376,-0.452C0.387,-0.449 0.395,-0.445 0.402,-0.44L0.402,-0.441ZM0.323,-0.22C0.342,-0.256 0.355,-0.287 0.363,-0.313C0.371,-0.34 0.375,-0.361 0.375,-0.378C0.375,-0.39 0.373,-0.4 0.369,-0.407C0.366,-0.415 0.361,-0.421 0.354,-0.424C0.351,-0.425 0.347,-0.426 0.343,-0.427C0.34,-0.428 0.336,-0.429 0.333,-0.429C0.329,-0.429 0.325,-0.429 0.321,-0.428C0.318,-0.427 0.314,-0.426 0.311,-0.424C0.294,-0.417 0.278,-0.405 0.262,-0.387C0.246,-0.37 0.231,-0.351 0.218,-0.331C0.211,-0.32 0.204,-0.308 0.197,-0.297C0.191,-0.286 0.186,-0.276 0.181,-0.267C0.175,-0.256 0.17,-0.243 0.165,-0.23C0.16,-0.217 0.156,-0.204 0.152,-0.191C0.147,-0.176 0.144,-0.16 0.141,-0.145C0.138,-0.13 0.137,-0.115 0.137,-0.102C0.137,-0.089 0.139,-0.077 0.142,-0.067C0.145,-0.058 0.15,-0.051 0.157,-0.046C0.159,-0.045 0.161,-0.044 0.162,-0.043C0.164,-0.042 0.166,-0.042 0.167,-0.042C0.168,-0.041 0.17,-0.041 0.171,-0.04L0.177,-0.04C0.181,-0.04 0.185,-0.04 0.189,-0.041C0.193,-0.042 0.197,-0.044 0.201,-0.046C0.216,-0.053 0.23,-0.066 0.244,-0.083C0.258,-0.101 0.271,-0.12 0.282,-0.139C0.291,-0.154 0.299,-0.169 0.306,-0.183C0.313,-0.198 0.319,-0.21 0.323,-0.219L0.323,-0.22Z" style="fill:rgb(0,81,164);fill-rule:nonzero;"/>
            </g>
        </g>
        <g transform="matrix(0.989851,0,0,0.989851,-122.409,-1249.22)">
            <g transform="matrix(0.25806,0,0,0.25806,349.224,1143.57)">
                <circle cx="1359.33" cy="1722.97" r="1138.48" style="fill:rgb(0,110,69);stroke:rgb(0,110,69);stroke-width:54.22px;"/>
                <g transform="matrix(0.915931,0,0,0.915931,262.192,256.391)">
                    <path d="M1369,1172.79L1439.48,1359.29C1439.48,1359.29 1632.65,1279.71 1751.85,1328.02C1751.85,1328.02 1889.95,1373.18 1751.32,1558.54C1751.32,1558.54 1686.21,1644.13 1606.92,1714.49C1527.63,1784.86 1371.68,1928.73 1369.58,1929.26C1367.48,1929.78 1404.24,2092.92 1404.24,2092.92L2101.09,2092.92L2101.09,1890.95L1736.1,1890.95C1736.1,1890.95 1801.7,1848.37 1919.33,1722.88C2036.95,1597.38 2067.41,1491.31 2076.33,1464C2085.26,1436.7 2114.14,1307.52 2029.6,1202.5C1945.06,1097.48 1787,1088.56 1747.62,1088.56C1708.24,1088.56 1571.66,1087.95 1369,1172.79Z" style="fill:white;"/>
                </g>
                <g transform="matrix(0.915931,0,0,0.915931,262.192,256.391)">
                    <path d="M379.714,1118.91L662.138,1118.91L662.138,1499.62L944.182,1118.79L1267.36,1118.79L918.179,1570.99L1313.1,2092.97L959.895,2092.86L668.223,1661.14L667.948,1660.69L667.948,2093.02L379.48,2093.02L379.48,1118.92L379.714,1118.91Z" style="fill:white;"/>
                </g>
            </g>
        </g>
    </g>
</svg>
