<?xml version="1.0" encoding="UTF-8" standalone="no"?>
<!DOCTYPE svg PUBLIC "-//W3C//DTD SVG 1.1//EN" "http://www.w3.org/Graphics/SVG/1.1/DTD/svg11.dtd">
<svg width="100%" height="100%" viewBox="0 0 596 596" version="1.1" xmlns="http://www.w3.org/2000/svg" xmlns:xlink="http://www.w3.org/1999/xlink" xml:space="preserve" xmlns:serif="http://www.serif.com/" style="fill-rule:evenodd;clip-rule:evenodd;stroke-linecap:round;stroke-linejoin:round;stroke-miterlimit:1.5;">
    <g transform="matrix(1,0,0,1,-272.76,-25.1217)">
        <g transform="matrix(0.989851,0,0,0.989851,-122.409,-1249.22)">
            <g transform="matrix(0.25806,0,0,0.25806,349.224,1143.57)">
                <circle cx="1359.33" cy="1722.97" r="1138.48" style="fill:rgb(0,110,69);stroke:rgb(0,110,69);stroke-width:54.22px;"/>
                <g transform="matrix(0.915931,0,0,0.915931,262.192,256.391)">
                    <path d="M1369,1172.79L1439.48,1359.29C1439.48,1359.29 1632.65,1279.71 1751.85,1328.02C1751.85,1328.02 1889.95,1373.18 1751.32,1558.54C1751.32,1558.54 1686.21,1644.13 1606.92,1714.49C1527.63,1784.86 1371.68,1928.73 1369.58,1929.26C1367.48,1929.78 1404.24,2092.92 1404.24,2092.92L2101.09,2092.92L2101.09,1890.95L1736.1,1890.95C1736.1,1890.95 1801.7,1848.37 1919.33,1722.88C2036.95,1597.38 2067.41,1491.31 2076.33,1464C2085.26,1436.7 2114.14,1307.52 2029.6,1202.5C1945.06,1097.48 1787,1088.56 1747.62,1088.56C1708.24,1088.56 1571.66,1087.95 1369,1172.79Z" style="fill:white;"/>
                </g>
                <g transform="matrix(0.915931,0,0,0.915931,262.192,256.391)">
                    <path d="M379.714,1118.91L662.138,1118.91L662.138,1499.62L944.182,1118.79L1267.36,1118.79L918.179,1570.99L1313.1,2092.97L959.895,2092.86L668.223,1661.14L667.948,1660.69L667.948,2093.02L379.48,2093.02L379.48,1118.92L379.714,1118.91Z" style="fill:white;"/>
                </g>
            </g>
        </g>
    </g>
</svg>
